<?xml version="1.0" encoding="UTF-8"?>
<svg version="1.1" xmlns="http://www.w3.org/2000/svg" width="1024" height="1024">
<path d="M0 0 C337.92 0 675.84 0 1024 0 C1024 337.92 1024 675.84 1024 1024 C686.08 1024 348.16 1024 0 1024 C0 686.08 0 348.16 0 0 Z " fill="#FEFEFE" transform="translate(0,0)"/>
<path d="M0 0 C10.43485162 0 20.36753877 0.22237234 30.6875 1.1875 C31.74508514 1.2844516 31.74508514 1.2844516 32.82403564 1.38336182 C53.91077831 3.34900001 74.66980444 7.02764236 95 13 C96.24265625 13.35449219 97.4853125 13.70898438 98.765625 14.07421875 C102.87576906 15.2995232 106.94028174 16.61803809 111 18 C111.94278809 18.32033203 112.88557617 18.64066406 113.85693359 18.97070312 C167.82010393 37.56298504 215.10246047 68.30804043 255 109 C259.09917623 107.38960934 261.76144922 104.42142691 264.75 101.3125 C268.64191338 97.34675628 272.54084165 93.48020811 276.78125 89.8828125 C278.52922901 88.39949228 280.25355359 86.8882959 281.96875 85.3671875 C291.18159216 77.23669512 300.92111812 70.01783747 311 63 C311.63518555 62.55414551 312.27037109 62.10829102 312.92480469 61.64892578 C344.08080131 39.87655952 379.41101526 23.2315702 416 13 C417.29526611 12.63165039 417.29526611 12.63165039 418.61669922 12.25585938 C449.52076834 3.59987121 479.81695274 1 512 1 C512 37.96 512 74.92 512 113 C504.08 113.33 496.16 113.66 488 114 C472.09273852 115.63371875 457.27541002 118.40560351 442 123 C440.73857178 123.37850098 440.73857178 123.37850098 439.45166016 123.76464844 C418.00623991 130.37043299 397.65887752 140.59010804 379 153 C378.37593262 153.41459473 377.75186523 153.82918945 377.10888672 154.25634766 C357.68728856 167.31971533 338.68647431 183.9537875 325 203 C333.84955107 222.4004069 355.88781344 239.04167219 373 251 C373.60408691 251.43280273 374.20817383 251.86560547 374.83056641 252.31152344 C416.45199839 282.0655463 461.35406457 291.65891982 512 296 C512 332.96 512 369.92 512 408 C486.16109155 408 486.16109155 408 476.0625 406.875 C474.86431641 406.74520752 473.66613281 406.61541504 472.43164062 406.48168945 C450.90237367 403.97728159 429.65929479 399.56183249 409 393 C407.73833008 392.61207275 407.73833008 392.61207275 406.45117188 392.21630859 C387.18714024 386.28249327 368.76534992 378.29150311 350.89941406 368.97998047 C348.97233627 367.98572722 347.03116429 367.02459631 345.0859375 366.06640625 C327.67148578 357.34341975 311.24033034 346.10385351 296 334 C295.12118164 333.31188232 295.12118164 333.31188232 294.22460938 332.60986328 C281.01249338 322.24564767 268.81694585 310.91918822 257 299 C253.89637137 300.37461605 251.84290958 301.9381003 249.49609375 304.37890625 C248.84350586 305.04841309 248.19091797 305.71791992 247.51855469 306.40771484 C246.83180664 307.11879395 246.14505859 307.82987305 245.4375 308.5625 C240.05059258 314.04547191 234.66674334 319.19331272 228.6171875 323.94140625 C225.80042107 326.15698224 223.09504877 328.47945004 220.375 330.8125 C159.64921573 381.32637446 78.31499958 408 0 408 C0 371.04 0 334.08 0 296 C11.55 295.01 23.1 294.02 35 293 C81.53934657 284.67588923 123.50196116 266.59177406 159 235 C159.50869629 234.55301758 160.01739258 234.10603516 160.54150391 233.64550781 C168.22245414 226.88237635 175.25649133 219.70230137 182 212 C182.48227051 211.50064941 182.96454102 211.00129883 183.46142578 210.48681641 C185.55096483 208.23172656 186.94545123 206.70458831 187.1875 203.578125 C185.41828529 199.73706674 182.82034837 196.87137465 180 193.75 C179.11368896 192.75202393 179.11368896 192.75202393 178.20947266 191.73388672 C171.29501888 184.00331302 164.16728395 176.90524563 156.046875 170.43359375 C153.90347694 168.72162324 151.79638776 166.99317728 149.703125 165.22265625 C132.27874107 150.63519499 112.66943199 140.24591172 92 131 C90.84032715 130.47067871 90.84032715 130.47067871 89.65722656 129.93066406 C79.41685805 125.31801305 68.73149151 122.44644714 57.875 119.6875 C57.20757782 119.5160144 56.54015564 119.34452881 55.85250854 119.16784668 C37.22998894 114.42905879 19.48783142 113.74953198 0 113 C0 75.71 0 38.42 0 0 Z " fill="#2A53FE" transform="translate(266,314)"/>
<path d="M0 0 C4.06787939 1.51277147 6.04508167 4.30605545 8.4375 7.75 C8.86144043 8.35054199 9.28538086 8.95108398 9.72216797 9.56982422 C14.27951623 16.16938815 18.27820316 23.09978925 22.31542969 30.02441406 C26.3095172 36.87040776 30.45212517 43.50434848 35 50 C35.73089844 51.06605469 36.46179688 52.13210938 37.21484375 53.23046875 C46.74837891 66.98759769 57.55974333 79.79530222 69 92 C68.32195312 92.67546875 67.64390625 93.3509375 66.9453125 94.046875 C64.82190256 96.16879273 62.71675824 98.30762983 60.6171875 100.453125 C54.22010702 106.961103 47.83487818 113.25303641 40.65234375 118.90625 C37.82680519 121.13671932 35.10753308 123.46926946 32.375 125.8125 C-28.35078427 176.32637446 -109.68500042 203 -188 203 C-188 166.04 -188 129.08 -188 91 C-176.45 90.01 -164.9 89.02 -153 88 C-106.46065343 79.67588923 -64.49803884 61.59177406 -29 30 C-28.23695557 29.32952637 -28.23695557 29.32952637 -27.45849609 28.64550781 C-17.46139936 19.84299284 -8.57056647 10.19202499 0 0 Z " fill="#274EED" transform="translate(454,519)"/>
<path d="M0 0 C0 36.96 0 73.92 0 112 C-11.88 112.495 -11.88 112.495 -24 113 C-39.90726148 114.63371875 -54.72458998 117.40560351 -70 122 C-70.84095215 122.25233398 -71.6819043 122.50466797 -72.54833984 122.76464844 C-93.99376009 129.37043299 -114.34112248 139.59010804 -133 152 C-133.62406738 152.41459473 -134.24813477 152.82918945 -134.89111328 153.25634766 C-154.31271144 166.31971533 -173.31352569 182.9537875 -187 202 C-188.734375 201.875 -188.734375 201.875 -191 201 C-192.59193633 199.02550533 -193.91279975 197.13906865 -195.25 195 C-195.66765625 194.35353516 -196.0853125 193.70707031 -196.515625 193.04101562 C-198.02247863 190.70153975 -199.51073966 188.35071272 -201 186 C-202.28549822 183.98896928 -203.57201758 181.97859106 -204.859375 179.96875 C-206.94244936 176.71493826 -209.02503573 173.46082362 -211.10546875 170.20532227 C-224.68685068 148.95873932 -238.66399488 127.52107156 -257 110 C-255.92685547 108.92878906 -255.92685547 108.92878906 -254.83203125 107.8359375 C-253.00990944 106.01445661 -251.19636133 104.18555004 -249.38671875 102.3515625 C-244.80339241 97.72180594 -240.21989499 93.14156725 -235.25390625 88.91796875 C-233.49397236 87.42034737 -231.75615686 85.89672258 -230.02734375 84.36328125 C-220.81536449 76.23466546 -211.07734819 69.01676958 -201 62 C-200.36481445 61.55414551 -199.72962891 61.10829102 -199.07519531 60.64892578 C-167.91919869 38.87655952 -132.58898474 22.2315702 -96 12 C-95.13648926 11.75443359 -94.27297852 11.50886719 -93.38330078 11.25585938 C-62.47923166 2.59987121 -32.18304726 0 0 0 Z " fill="#274DEB" transform="translate(778,315)"/>
</svg>
