<?xml version="1.0" encoding="UTF-8"?>
<svg version="1.1" xmlns="http://www.w3.org/2000/svg" width="225" height="225">
<path d="M0 0 C74.25 0 148.5 0 225 0 C225 74.25 225 148.5 225 225 C150.75 225 76.5 225 0 225 C0 150.75 0 76.5 0 0 Z " fill="#FEB21E" transform="translate(0,0)"/>
<path d="M0 0 C74.25 0 148.5 0 225 0 C225 74.25 225 148.5 225 225 C150.75 225 76.5 225 0 225 C0 150.75 0 76.5 0 0 Z M29.25 39.8125 C8.74016124 63.49513149 1.12495176 93.17141437 3 124 C4.2954109 135.49477266 7.28363427 146.4376001 12 157 C12.47179688 158.06734375 12.94359375 159.1346875 13.4296875 160.234375 C14.59758686 162.83410577 15.78575587 165.42166885 17 168 C17.66 168 18.32 168 19 168 C19.24363281 168.69222656 19.48726562 169.38445312 19.73828125 170.09765625 C21.20713356 173.47647132 23.09431204 176.42451821 25.1875 179.4375 C25.58606201 180.01298584 25.98462402 180.58847168 26.39526367 181.18139648 C29.04775888 184.90866896 31.74470742 188.00527349 35.39453125 190.75390625 C37 192 37 192 38.87890625 193.91015625 C45.53457281 200.46776511 53.89262854 205.43960355 62 210 C62.61875 210.35707031 63.2375 210.71414062 63.875 211.08203125 C78.79208807 219.15140432 94.97583722 221.41665128 111.6875 221.375 C112.39521545 221.37545319 113.10293091 221.37590637 113.83209229 221.37637329 C124.43503342 221.3564187 133.9264252 220.51048819 144 217 C145.60778678 216.54975821 147.215886 216.10063134 148.82421875 215.65234375 C154.01455356 214.10061936 158.6695169 211.92591288 163.4375 209.375 C164.2622583 208.93696045 165.0870166 208.4989209 165.93676758 208.04760742 C172.67096718 204.37254319 178.3277147 200.17980782 184 195 C184.61133789 194.48711426 185.22267578 193.97422852 185.85253906 193.44580078 C190.61684515 189.42258376 194.61324066 185.2190628 198.375 180.25 C198.92663818 179.52192139 199.47827637 178.79384277 200.04663086 178.04370117 C208.9203098 165.9914292 216.02633314 152.75520565 219 138 C219.17297607 137.15663086 219.34595215 136.31326172 219.52416992 135.44433594 C221.05356203 127.31201573 221.3335094 119.38589772 221.3125 111.125 C221.32861328 109.86558594 221.34472656 108.60617188 221.36132812 107.30859375 C221.37272658 85.12720515 213.21921382 63.7738428 199.73828125 46.26171875 C198 44 198 44 195.9375 40.6875 C193.81136517 37.73834524 191.49651742 35.66867667 188.68359375 33.39453125 C187 32 187 32 185.58984375 30.5546875 C164.10222169 9.5422217 135.39284101 2.55376301 106.3828125 2.8515625 C76.70244158 3.4778173 49.32973996 18.50410462 29.25 39.8125 Z " fill="#FEFEFD" transform="translate(0,0)"/>
<path d="M0 0 C1.32 1.32 2.64 2.64 4 4 C3.505 2.02 3.505 2.02 3 0 C3.99 0 4.98 0 6 0 C7.2375 -0.1546875 7.2375 -0.1546875 8.5 -0.3125 C9.325 -0.209375 10.15 -0.10625 11 0 C12.8125 2.5 12.8125 2.5 14 5 C13.505 3.02 13.505 3.02 13 1 C15.31 1 17.62 1 20 1 C20.495 1.99 20.495 1.99 21 3 C21.66 2.67 22.32 2.34 23 2 C23.99 2.99 23.99 2.99 25 4 C27.46692199 5.06155005 29.97262027 5.97348837 32.4921875 6.90234375 C35.01918074 8.00839531 36.94200111 9.16694517 39 11 C39 11.66 39 12.32 39 13 C39.88171875 13.37705078 39.88171875 13.37705078 40.78125 13.76171875 C47.16400947 17.32392782 50.28630059 24.03414532 52.375 30.75 C56.26811993 44.76523176 56.13277834 56.81763991 49.12109375 69.73828125 C48.07898961 71.84064465 47.46641879 73.70983132 47 76 C47.66 76 48.32 76 49 76 C50.86745717 81.26622923 52.43386993 86.48416311 53.5703125 91.95703125 C53.8565742 93.3180755 54.18499432 94.67093012 54.5546875 96.01171875 C55 98 55 98 55 102 C54.01 102.495 54.01 102.495 53 103 C53.33 103.66 53.66 104.32 54 105 C53.01 105 52.02 105 51 105 C51.99 105.99 52.98 106.98 54 108 C53.01 108 52.02 108 51 108 C52.485 108.99 52.485 108.99 54 110 C53.34 112.64 52.68 115.28 52 118 C47.49653301 115.47805848 43.320445 112.88029667 39 110 C42.96 112.97 46.92 115.94 51 119 C49.515 119.495 49.515 119.495 48 120 C47.34 119.67 46.68 119.34 46 119 C46.99 119.680625 46.99 119.680625 48 120.375 C48.66 120.91125 49.32 121.4475 50 122 C50 122.66 50 123.32 50 124 C49.34 124 48.68 124 48 124 C48 124.66 48 125.32 48 126 C44.96147295 124.59023295 42.4060405 122.91129772 39.75 120.875 C39.04359375 120.33617187 38.3371875 119.79734375 37.609375 119.2421875 C37.07828125 118.83226562 36.5471875 118.42234375 36 118 C37.7074998 119.28062485 39.37373596 120.61767557 41 122 C41 122.66 41 123.32 41 124 C41.639375 124.28875 42.27875 124.5775 42.9375 124.875 C45 126 45 126 46 128 C40.67302761 126.54718935 37.63597198 122.91888622 34 119 C36.97088618 122.99926986 40.12948725 125.92118304 44 129 C43.67 129.66 43.34 130.32 43 131 C42.25556641 130.34644531 42.25556641 130.34644531 41.49609375 129.6796875 C40.81675781 129.08414063 40.13742188 128.48859375 39.4375 127.875 C38.77621094 127.29492188 38.11492187 126.71484375 37.43359375 126.1171875 C34.30385316 123.39436342 31.14968403 120.69972917 28 118 C32.62 122.62 37.24 127.24 42 132 C41.67 132.66 41.34 133.32 41 134 C32.75 125.75 24.5 117.5 16 109 C18.85448767 112.56810959 21.53217141 115.63062563 24.765625 118.79296875 C25.65507812 119.67017578 26.54453125 120.54738281 27.4609375 121.45117188 C29.33413332 123.28895013 31.20916152 125.1248624 33.0859375 126.95898438 C33.97023438 127.83232422 34.85453125 128.70566406 35.765625 129.60546875 C36.57805664 130.40106201 37.39048828 131.19665527 38.22753906 132.01635742 C40 134 40 134 40 136 C39.34 136 38.68 136 38 136 C36.6953125 134.671875 36.6953125 134.671875 35.125 132.75 C30.10297282 126.82166218 24.52998282 121.44825893 19 116 C23.5358109 121.51652677 28.47798201 126.49307826 33.609375 131.44921875 C35.65500452 133.63189208 36.89614081 135.25960539 38 138 C37.34 138 36.68 138 36 138 C36 138.66 36 139.32 36 140 C35.01 140 34.02 140 33 140 C33 140.66 33 141.32 33 142 C29.04 142.99 29.04 142.99 25 144 C22.69 141.03 20.38 138.06 18 135 C19.98 137.97 21.96 140.94 24 144 C23.67 144.66 23.34 145.32 23 146 C20.03 142.04 17.06 138.08 14 134 C16.29034467 138.02784753 18.59825758 142.03712501 21 146 C19.35 146.33 17.7 146.66 16 147 C13.525 143.535 13.525 143.535 11 140 C12.32 141.98 13.64 143.96 15 146 C14.67 146.66 14.34 147.32 14 148 C13.67 147.67 13.34 147.34 13 147 C12.34 147.66 11.68 148.32 11 149 C10.01 148.01 10.01 148.01 9 147 C8.67 147.66 8.34 148.32 8 149 C3.125 147.125 3.125 147.125 2 146 C1.67 146.66 1.34 147.32 1 148 C0.34 147.67 -0.32 147.34 -1 147 C-2.5778125 146.814375 -2.5778125 146.814375 -4.1875 146.625 C-11.66442004 145.3992754 -18.14361291 141.76744437 -24 137 C-24 136.34 -24 135.68 -24 135 C-24.598125 134.731875 -25.19625 134.46375 -25.8125 134.1875 C-29.33109932 132.27740323 -31.22619058 129.92680052 -33.0078125 126.3828125 C-33.35457031 125.69316406 -33.70132813 125.00351563 -34.05859375 124.29296875 C-34.41050781 123.57753906 -34.76242188 122.86210937 -35.125 122.125 C-35.48464844 121.41730469 -35.84429687 120.70960938 -36.21484375 119.98046875 C-41.44614018 109.45909728 -41.56332129 97.2205767 -38.3125 86 C-36.50598632 80.80060759 -34.16846714 76.48866178 -31 72 C-31.99 71.67 -32.98 71.34 -34 71 C-34.495 68.525 -34.495 68.525 -35 66 C-35.66 66 -36.32 66 -37 66 C-37 64.68 -37 63.36 -37 62 C-36.01 62 -35.02 62 -34 62 C-34.804375 61.773125 -35.60875 61.54625 -36.4375 61.3125 C-39 60 -39 60 -39.8125 57.5625 C-40 55 -40 55 -40 52 C-39.01 52 -38.02 52 -37 52 C-37.99 51.01 -38.98 50.02 -40 49 C-39.01 49 -38.02 49 -37 49 C-37.99 48.01 -38.98 47.02 -40 46 C-39.01 46 -38.02 46 -37 46 C-37.99 45.34 -38.98 44.68 -40 44 C-39.67 42.68 -39.34 41.36 -39 40 C-37.68 40.33 -36.36 40.66 -35 41 C-36.32 39.68 -37.64 38.36 -39 37 C-38.01 36.505 -38.01 36.505 -37 36 C-37.33 35.34 -37.66 34.68 -38 34 C-33.1962523 35.65128827 -29.24818148 38.26388311 -25 41 C-28.96 38.03 -32.92 35.06 -37 32 C-36.01 31.67 -35.02 31.34 -34 31 C-34.66 30.01 -35.32 29.02 -36 28 C-30.86415346 29.60495204 -27.19261435 32.73118203 -23 36 C-26.96 32.7 -30.92 29.4 -35 26 C-31.89448334 26 -30.64738916 26.5393715 -28 28 C-29.65 26.68 -31.3 25.36 -33 24 C-32.67 23.34 -32.34 22.68 -32 22 C-29.69 23.65 -27.38 25.3 -25 27 C-25.99 26.21625 -26.98 25.4325 -28 24.625 C-29.485 23.325625 -29.485 23.325625 -31 22 C-31 21.34 -31 20.68 -31 20 C-28.17131143 21.29603412 -26.0298979 22.69189598 -23.765625 24.8203125 C-23.19199219 25.35527344 -22.61835937 25.89023437 -22.02734375 26.44140625 C-21.44082031 26.99699219 -20.85429688 27.55257812 -20.25 28.125 C-19.64800781 28.68832031 -19.04601562 29.25164062 -18.42578125 29.83203125 C-16.94665849 31.21724146 -15.47280359 32.6080729 -14 34 C-16.93170964 30.12595512 -20.12858823 26.92090336 -23.75 23.6875 C-24.25660156 23.23310547 -24.76320313 22.77871094 -25.28515625 22.31054688 C-26.52032872 21.20355268 -27.75972716 20.10127675 -29 19 C-28.67 18.34 -28.34 17.68 -28 17 C-26.68 17.99 -25.36 18.98 -24 20 C-24.7425 19.319375 -24.7425 19.319375 -25.5 18.625 C-27 17 -27 17 -27 15 C-23.78475695 16.40844718 -21.67816132 18.10344786 -19.25 20.625 C-18.63640625 21.25664063 -18.0228125 21.88828125 -17.390625 22.5390625 C-16.93171875 23.02117188 -16.4728125 23.50328125 -16 24 C-16.39832031 23.54109375 -16.79664062 23.0821875 -17.20703125 22.609375 C-19.91142062 19.47728415 -22.57991771 16.36122541 -25 13 C-20.70761377 14.65091778 -18.1206085 17.73754566 -15 21 C-15.40992187 20.54109375 -15.81984375 20.0821875 -16.2421875 19.609375 C-16.78101562 18.99578125 -17.31984375 18.3821875 -17.875 17.75 C-18.40867187 17.14671875 -18.94234375 16.5434375 -19.4921875 15.921875 C-20.9797487 14.02581254 -22.00322436 12.18709995 -23 10 C-22.34 10 -21.68 10 -21 10 C-19.37890625 11.6796875 -19.37890625 11.6796875 -17.5625 13.875 C-15.41599116 16.46193722 -13.83223438 18.11184374 -11 20 C-11.48210937 19.54109375 -11.96421875 19.0821875 -12.4609375 18.609375 C-13.09257813 17.99578125 -13.72421875 17.3821875 -14.375 16.75 C-15.00148438 16.14671875 -15.62796875 15.5434375 -16.2734375 14.921875 C-17.97310161 13.0299412 -18.98459866 11.31798691 -20 9 C-16.78956118 10.38188453 -14.95063635 11.92421903 -12.75 14.625 C-12.22921875 15.25664063 -11.7084375 15.88828125 -11.171875 16.5390625 C-10.59179688 17.26222656 -10.59179688 17.26222656 -10 18 C-10.433125 17.45730469 -10.86625 16.91460937 -11.3125 16.35546875 C-11.869375 15.64003906 -12.42625 14.92460938 -13 14.1875 C-13.556875 13.47980469 -14.11375 12.77210937 -14.6875 12.04296875 C-16 10 -16 10 -16 7 C-13.36 9.97 -10.72 12.94 -8 16 C-8.969375 14.741875 -9.93875 13.48375 -10.9375 12.1875 C-12.85759227 9.69546535 -13.99503148 8.01490557 -15 5 C-14.34 5 -13.68 5 -13 5 C-13 4.34 -13 3.68 -13 3 C-9.65001479 4.11666174 -9.20659778 4.74694925 -7.3125 7.5625 C-6.87550781 8.20316406 -6.43851563 8.84382813 -5.98828125 9.50390625 C-5.49908203 10.24447266 -5.49908203 10.24447266 -5 11 C-9 5.25 -9 5.25 -9 3 C-8.34 3 -7.68 3 -7 3 C-6.505 3.495 -6.505 3.495 -6 4 C-6 3.34 -6 2.68 -6 2 C-3.26077068 2 -2.85663652 2.04778783 0 3 C1.6875 5.0625 1.6875 5.0625 3 7 C2.505 6.21625 2.01 5.4325 1.5 4.625 C0 2 0 2 0 0 Z " fill="#FEFCF6" transform="translate(105,38)"/>
<path d="M0 0 C1.32 1.32 2.64 2.64 4 4 C3.505 2.02 3.505 2.02 3 0 C3.99 0 4.98 0 6 0 C7.2375 -0.1546875 7.2375 -0.1546875 8.5 -0.3125 C9.325 -0.209375 10.15 -0.10625 11 0 C12.8125 2.5 12.8125 2.5 14 5 C13.505 3.02 13.505 3.02 13 1 C15.31 1 17.62 1 20 1 C20.495 1.99 20.495 1.99 21 3 C21.66 2.67 22.32 2.34 23 2 C23.99 2.99 23.99 2.99 25 4 C27.46692199 5.06155005 29.97262027 5.97348837 32.4921875 6.90234375 C35.01918074 8.00839531 36.94200111 9.16694517 39 11 C39 11.66 39 12.32 39 13 C39.5775 13.185625 40.155 13.37125 40.75 13.5625 C44.00733672 15.64357624 45.76068088 18.34479299 47 22 C46.25 24.9375 46.25 24.9375 45 27 C44.505 25.515 44.505 25.515 44 24 C43.505 23.01 43.505 23.01 43 22 C42.71125 22.7425 42.4225 23.485 42.125 24.25 C41.17697356 26.56739797 40.15154089 28.77917115 39 31 C38.01 31 37.02 31 36 31 C35.67 31.66 35.34 32.32 35 33 C34.01 31.02 33.02 29.04 32 27 C32 28.32 32 29.64 32 31 C31.38001259 33.01495907 30.72045764 35.0187415 30 37 C30.99 37 31.98 37 33 37 C33.495 36.01 33.495 36.01 34 35 C34.66 35 35.32 35 36 35 C36.33 35.99 36.66 36.98 37 38 C36.01 38.99 36.01 38.99 35 40 C32.375 39.625 32.375 39.625 30 39 C29.505 39.99 29.505 39.99 29 41 C28.67 41 28.34 41 28 41 C26.43727811 45.39253773 26.43727811 45.39253773 26 50 C26.99 49.67 27.98 49.34 29 49 C29.495 52.465 29.495 52.465 30 56 C29.2575 55.67 28.515 55.34 27.75 55 C24.61244194 53.8590698 22.18577443 53.67660697 18.9375 54.5625 C17 55 17 55 14 54 C13.05125 54.185625 12.1025 54.37125 11.125 54.5625 C7.60511926 55.0552833 6.19882338 54.346873 3 53 C1.00572641 53.18553891 1.00572641 53.18553891 -1 54 C-6.88235294 56 -6.88235294 56 -9 56 C-10.31055396 56.58435956 -11.60033338 57.21602141 -12.875 57.875 C-13.55304688 58.22304687 -14.23109375 58.57109375 -14.9296875 58.9296875 C-15.61289063 59.28289062 -16.29609375 59.63609375 -17 60 C-18.33240997 60.6685102 -19.66547193 61.33572818 -21 62 C-21 62.66 -21 63.32 -21 64 C-24.875 65 -24.875 65 -26 65 C-26 65.99 -26 66.98 -26 68 C-28.63904371 69.41377341 -31.07120629 70.37240135 -34 71 C-34.495 68.525 -34.495 68.525 -35 66 C-35.66 66 -36.32 66 -37 66 C-37 64.68 -37 63.36 -37 62 C-36.01 62 -35.02 62 -34 62 C-34.804375 61.773125 -35.60875 61.54625 -36.4375 61.3125 C-39 60 -39 60 -39.8125 57.5625 C-40 55 -40 55 -40 52 C-39.01 52 -38.02 52 -37 52 C-37.99 51.01 -38.98 50.02 -40 49 C-39.01 49 -38.02 49 -37 49 C-37.99 48.01 -38.98 47.02 -40 46 C-39.01 46 -38.02 46 -37 46 C-37.99 45.34 -38.98 44.68 -40 44 C-39.67 42.68 -39.34 41.36 -39 40 C-37.68 40.33 -36.36 40.66 -35 41 C-36.32 39.68 -37.64 38.36 -39 37 C-38.01 36.505 -38.01 36.505 -37 36 C-37.33 35.34 -37.66 34.68 -38 34 C-33.1962523 35.65128827 -29.24818148 38.26388311 -25 41 C-28.96 38.03 -32.92 35.06 -37 32 C-36.01 31.67 -35.02 31.34 -34 31 C-34.66 30.01 -35.32 29.02 -36 28 C-30.86415346 29.60495204 -27.19261435 32.73118203 -23 36 C-26.96 32.7 -30.92 29.4 -35 26 C-31.89448334 26 -30.64738916 26.5393715 -28 28 C-29.65 26.68 -31.3 25.36 -33 24 C-32.67 23.34 -32.34 22.68 -32 22 C-29.69 23.65 -27.38 25.3 -25 27 C-25.99 26.21625 -26.98 25.4325 -28 24.625 C-29.485 23.325625 -29.485 23.325625 -31 22 C-31 21.34 -31 20.68 -31 20 C-28.17131143 21.29603412 -26.0298979 22.69189598 -23.765625 24.8203125 C-23.19199219 25.35527344 -22.61835937 25.89023437 -22.02734375 26.44140625 C-21.44082031 26.99699219 -20.85429688 27.55257812 -20.25 28.125 C-19.64800781 28.68832031 -19.04601562 29.25164062 -18.42578125 29.83203125 C-16.94665849 31.21724146 -15.47280359 32.6080729 -14 34 C-16.93170964 30.12595512 -20.12858823 26.92090336 -23.75 23.6875 C-24.25660156 23.23310547 -24.76320313 22.77871094 -25.28515625 22.31054688 C-26.52032872 21.20355268 -27.75972716 20.10127675 -29 19 C-28.67 18.34 -28.34 17.68 -28 17 C-26.68 17.99 -25.36 18.98 -24 20 C-24.7425 19.319375 -24.7425 19.319375 -25.5 18.625 C-27 17 -27 17 -27 15 C-23.78475695 16.40844718 -21.67816132 18.10344786 -19.25 20.625 C-18.63640625 21.25664063 -18.0228125 21.88828125 -17.390625 22.5390625 C-16.93171875 23.02117188 -16.4728125 23.50328125 -16 24 C-16.39832031 23.54109375 -16.79664062 23.0821875 -17.20703125 22.609375 C-19.91142062 19.47728415 -22.57991771 16.36122541 -25 13 C-20.70761377 14.65091778 -18.1206085 17.73754566 -15 21 C-15.40992187 20.54109375 -15.81984375 20.0821875 -16.2421875 19.609375 C-16.78101562 18.99578125 -17.31984375 18.3821875 -17.875 17.75 C-18.40867187 17.14671875 -18.94234375 16.5434375 -19.4921875 15.921875 C-20.9797487 14.02581254 -22.00322436 12.18709995 -23 10 C-22.34 10 -21.68 10 -21 10 C-19.37890625 11.6796875 -19.37890625 11.6796875 -17.5625 13.875 C-15.41599116 16.46193722 -13.83223438 18.11184374 -11 20 C-11.48210937 19.54109375 -11.96421875 19.0821875 -12.4609375 18.609375 C-13.09257813 17.99578125 -13.72421875 17.3821875 -14.375 16.75 C-15.00148438 16.14671875 -15.62796875 15.5434375 -16.2734375 14.921875 C-17.97310161 13.0299412 -18.98459866 11.31798691 -20 9 C-16.78956118 10.38188453 -14.95063635 11.92421903 -12.75 14.625 C-12.22921875 15.25664063 -11.7084375 15.88828125 -11.171875 16.5390625 C-10.59179688 17.26222656 -10.59179688 17.26222656 -10 18 C-10.433125 17.45730469 -10.86625 16.91460937 -11.3125 16.35546875 C-11.869375 15.64003906 -12.42625 14.92460938 -13 14.1875 C-13.556875 13.47980469 -14.11375 12.77210937 -14.6875 12.04296875 C-16 10 -16 10 -16 7 C-13.36 9.97 -10.72 12.94 -8 16 C-8.969375 14.741875 -9.93875 13.48375 -10.9375 12.1875 C-12.85759227 9.69546535 -13.99503148 8.01490557 -15 5 C-14.34 5 -13.68 5 -13 5 C-13 4.34 -13 3.68 -13 3 C-9.65001479 4.11666174 -9.20659778 4.74694925 -7.3125 7.5625 C-6.87550781 8.20316406 -6.43851563 8.84382813 -5.98828125 9.50390625 C-5.49908203 10.24447266 -5.49908203 10.24447266 -5 11 C-9 5.25 -9 5.25 -9 3 C-8.34 3 -7.68 3 -7 3 C-6.505 3.495 -6.505 3.495 -6 4 C-6 3.34 -6 2.68 -6 2 C-3.26077068 2 -2.85663652 2.04778783 0 3 C1.6875 5.0625 1.6875 5.0625 3 7 C2.505 6.21625 2.01 5.4325 1.5 4.625 C0 2 0 2 0 0 Z " fill="#FAE4B3" transform="translate(105,38)"/>
<path d="M0 0 C0.66 0 1.32 0 2 0 C2 0.66 2 1.32 2 2 C2.66 2 3.32 2 4 2 C5.86745717 7.26622923 7.43386993 12.48416311 8.5703125 17.95703125 C8.8565742 19.3180755 9.18499432 20.67093012 9.5546875 22.01171875 C10 24 10 24 10 28 C9.34 28.33 8.68 28.66 8 29 C8.495 29.99 8.495 29.99 9 31 C8.01 31 7.02 31 6 31 C6.99 31.99 7.98 32.98 9 34 C8.01 34 7.02 34 6 34 C7.485 34.99 7.485 34.99 9 36 C8.34 38.64 7.68 41.28 7 44 C2.49653301 41.47805848 -1.679555 38.88029667 -6 36 C-2.04 38.97 1.92 41.94 6 45 C4.515 45.495 4.515 45.495 3 46 C2.34 45.67 1.68 45.34 1 45 C1.99 45.680625 1.99 45.680625 3 46.375 C3.66 46.91125 4.32 47.4475 5 48 C5 48.66 5 49.32 5 50 C4.34 50 3.68 50 3 50 C3 50.66 3 51.32 3 52 C-0.03852705 50.59023295 -2.5939595 48.91129772 -5.25 46.875 C-5.95640625 46.33617187 -6.6628125 45.79734375 -7.390625 45.2421875 C-7.92171875 44.83226562 -8.4528125 44.42234375 -9 44 C-7.2925002 45.28062485 -5.62626404 46.61767557 -4 48 C-4 48.66 -4 49.32 -4 50 C-3.360625 50.28875 -2.72125 50.5775 -2.0625 50.875 C0 52 0 52 1 54 C-4.32697239 52.54718935 -7.36402802 48.91888622 -11 45 C-8.02911382 48.99926986 -4.87051275 51.92118304 -1 55 C-1.495 55.99 -1.495 55.99 -2 57 C-2.49628906 56.56429687 -2.99257812 56.12859375 -3.50390625 55.6796875 C-4.18324219 55.08414063 -4.86257812 54.48859375 -5.5625 53.875 C-6.22378906 53.29492188 -6.88507813 52.71484375 -7.56640625 52.1171875 C-10.69614684 49.39436342 -13.85031597 46.69972917 -17 44 C-12.38 48.62 -7.76 53.24 -3 58 C-3.495 58.99 -3.495 58.99 -4 60 C-12.25 51.75 -20.5 43.5 -29 35 C-26.14551233 38.56810959 -23.46782859 41.63062563 -20.234375 44.79296875 C-19.34492188 45.67017578 -18.45546875 46.54738281 -17.5390625 47.45117188 C-15.66586668 49.28895013 -13.79083848 51.1248624 -11.9140625 52.95898438 C-11.02976562 53.83232422 -10.14546875 54.70566406 -9.234375 55.60546875 C-8.42194336 56.40106201 -7.60951172 57.19665527 -6.77246094 58.01635742 C-5 60 -5 60 -5 62 C-5.66 62 -6.32 62 -7 62 C-8.3046875 60.671875 -8.3046875 60.671875 -9.875 58.75 C-14.89702718 52.82166218 -20.47001718 47.44825893 -26 42 C-21.4641891 47.51652677 -16.52201799 52.49307826 -11.390625 57.44921875 C-9.34499548 59.63189208 -8.10385919 61.25960539 -7 64 C-7.66 64 -8.32 64 -9 64 C-9 64.66 -9 65.32 -9 66 C-9.99 66 -10.98 66 -12 66 C-12 66.66 -12 67.32 -12 68 C-15.96 68.99 -15.96 68.99 -20 70 C-22.31 67.03 -24.62 64.06 -27 61 C-25.02 63.97 -23.04 66.94 -21 70 C-21.33 70.66 -21.66 71.32 -22 72 C-24.97 68.04 -27.94 64.08 -31 60 C-28.70965533 64.02784753 -26.40174242 68.03712501 -24 72 C-26.475 72.495 -26.475 72.495 -29 73 C-31.475 69.535 -31.475 69.535 -34 66 C-32.68 67.98 -31.36 69.96 -30 72 C-30.33 72.66 -30.66 73.32 -31 74 C-31.33 73.67 -31.66 73.34 -32 73 C-32.66 73.66 -33.32 74.32 -34 75 C-34.99 74.01 -34.99 74.01 -36 73 C-36.33 73.66 -36.66 74.32 -37 75 C-41.875 73.125 -41.875 73.125 -43 72 C-43.33 72.66 -43.66 73.32 -44 74 C-44.66 73.67 -45.32 73.34 -46 73 C-47.5778125 72.814375 -47.5778125 72.814375 -49.1875 72.625 C-56.66442004 71.3992754 -63.14361291 67.76744437 -69 63 C-69 62.34 -69 61.68 -69 61 C-69.598125 60.731875 -70.19625 60.46375 -70.8125 60.1875 C-72.97224808 59.01506533 -74.35790256 57.80630718 -76 56 C-75.67 55.01 -75.34 54.02 -75 53 C-74.01 53 -73.02 53 -72 53 C-71.34 53.66 -70.68 54.32 -70 55 C-69.34 53.35 -68.68 51.7 -68 50 C-67.34 50.99 -66.68 51.98 -66 53 C-65.34 53.66 -64.68 54.32 -64 55 C-64 52.37886292 -64.31292445 50.49064888 -65 48 C-64.01 48 -63.02 48 -62 48 C-62 46.35 -62 44.7 -62 43 C-62.99 43.99 -63.98 44.98 -65 46 C-65.33 44.35 -65.66 42.7 -66 41 C-64.35 40.34 -62.7 39.68 -61 39 C-61.99 38.67 -62.98 38.34 -64 38 C-60.675 29.45 -60.675 29.45 -57 27 C-56.67 27 -56.34 27 -56 27 C-55.34 26.34 -54.68 25.68 -54 25 C-51.98863724 27.55991624 -50.37154504 30.04590299 -49 33 C-47.99782936 29.41672247 -47.99782936 29.41672247 -49 26 C-49.66 26 -50.32 26 -51 26 C-50.67 25.34 -50.34 24.68 -50 24 C-50.33 23.67 -50.66 23.34 -51 23 C-50.34 22.67 -49.68 22.34 -49 22 C-48.67 21.01 -48.34 20.02 -48 19 C-47.01 19 -46.02 19 -45 19 C-44.67 19.66 -44.34 20.32 -44 21 C-43.39671875 20.855625 -42.7934375 20.71125 -42.171875 20.5625 C-41.37265625 20.376875 -40.5734375 20.19125 -39.75 20 C-38.96109375 19.814375 -38.1721875 19.62875 -37.359375 19.4375 C-34.40095672 18.88891913 -31.55845835 18.97136111 -28.5625 19.125 C-24.71154542 18.93714856 -21.99778148 17.75589506 -18.9375 15.4375 C-16.87456891 13.90693822 -15.49744819 13.46827153 -13 13 C-11.88625 12.7215625 -11.88625 12.7215625 -10.75 12.4375 C-10.1725 12.293125 -9.595 12.14875 -9 12 C-9 11.34 -9 10.68 -9 10 C-6.525 9.505 -6.525 9.505 -4 9 C-3.87625 8.21625 -3.7525 7.4325 -3.625 6.625 C-3 4 -3 4 -1 2 C-0.67 1.34 -0.34 0.68 0 0 Z " fill="#FAE6B6" transform="translate(150,112)"/>
<path d="M0 0 C0.66 0 1.32 0 2 0 C2 0.66 2 1.32 2 2 C2.66 2 3.32 2 4 2 C6.10486432 7.93571738 7.75820687 13.8268553 9 20 C9.309375 21.5159375 9.309375 21.5159375 9.625 23.0625 C9.810625 24.0215625 9.810625 24.0215625 10 25 C8.88625 24.649375 7.7725 24.29875 6.625 23.9375 C3.19735524 22.62760669 3.19735524 22.62760669 1 24 C-0.37562854 22.71034824 -1.70766393 21.37310707 -3 20 C-3 19.34 -3 18.68 -3 18 C-3.62648438 18.08378906 -4.25296875 18.16757813 -4.8984375 18.25390625 C-5.71570313 18.35574219 -6.53296875 18.45757812 -7.375 18.5625 C-8.18710938 18.66691406 -8.99921875 18.77132812 -9.8359375 18.87890625 C-12 19 -12 19 -14 18 C-10.7 20.31 -7.4 22.62 -4 25 C-4.33 25.66 -4.66 26.32 -5 27 C-3.68 28.32 -2.36 29.64 -1 31 C-5.10958767 29.54955729 -8.43258745 27.48889248 -12 25 C-11.01 26.485 -11.01 26.485 -10 28 C-11.32 27.34 -12.64 26.68 -14 26 C-14 26.33 -14 26.66 -14 27 C-15.33333333 27 -16.66666667 27 -18 27 C-18 27.99 -18 28.98 -18 30 C-21.51716303 30 -22.37121748 29.17554415 -25 27 C-25 27.99 -25 28.98 -25 30 C-28.90838866 30 -30.11594107 28.49432124 -33 26 C-34.98 26.99 -34.98 26.99 -37 28 C-37.66 27.01 -38.32 26.02 -39 25 C-39.33 25.66 -39.66 26.32 -40 27 C-39.10836423 29.11683841 -39.10836423 29.11683841 -38 31 C-39.32 31.33 -40.64 31.66 -42 32 C-42.2236337 33.41433206 -42.42826476 34.83167618 -42.625 36.25 C-42.74101563 37.03890625 -42.85703125 37.8278125 -42.9765625 38.640625 C-43.00319395 41.32152459 -42.36592084 42.72694089 -41 45 C-41.66 45 -42.32 45 -43 45 C-43 45.99 -43 46.98 -43 48 C-43.495 48.99 -43.495 48.99 -44 50 C-49.05908096 44.08315098 -49.05908096 44.08315098 -48.8125 39.5625 C-48.544375 38.716875 -48.27625 37.87125 -48 37 C-49.32 36.34 -50.64 35.68 -52 35 C-51.34 36.65 -50.68 38.3 -50 40 C-50.99 40.495 -50.99 40.495 -52 41 C-51.690625 41.721875 -51.38125 42.44375 -51.0625 43.1875 C-49.53327591 47.23544611 -48.60965886 49.82897658 -50 54 C-49.2127445 55.81180306 -49.2127445 55.81180306 -48 57.5625 C-47.34 58.696875 -46.68 59.83125 -46 61 C-46.33 61.66 -46.66 62.32 -47 63 C-47.165 63.66 -47.33 64.32 -47.5 65 C-48 67 -48 67 -49 69 C-50.65 66.36 -52.3 63.72 -54 61 C-53.67 62.32 -53.34 63.64 -53 65 C-55.475 65.99 -55.475 65.99 -58 67 C-58.495 66.01 -58.495 66.01 -59 65 C-59.721875 65.226875 -60.44375 65.45375 -61.1875 65.6875 C-64.7809319 66.08677021 -66.18230651 65.17364926 -69 63 C-69 62.34 -69 61.68 -69 61 C-69.598125 60.731875 -70.19625 60.46375 -70.8125 60.1875 C-72.97224808 59.01506533 -74.35790256 57.80630718 -76 56 C-75.67 55.01 -75.34 54.02 -75 53 C-74.01 53 -73.02 53 -72 53 C-71.34 53.66 -70.68 54.32 -70 55 C-69.34 53.35 -68.68 51.7 -68 50 C-67.34 50.99 -66.68 51.98 -66 53 C-65.34 53.66 -64.68 54.32 -64 55 C-64 52.37886292 -64.31292445 50.49064888 -65 48 C-64.01 48 -63.02 48 -62 48 C-62 46.35 -62 44.7 -62 43 C-62.99 43.99 -63.98 44.98 -65 46 C-65.33 44.35 -65.66 42.7 -66 41 C-64.35 40.34 -62.7 39.68 -61 39 C-61.99 38.67 -62.98 38.34 -64 38 C-60.675 29.45 -60.675 29.45 -57 27 C-56.67 27 -56.34 27 -56 27 C-55.34 26.34 -54.68 25.68 -54 25 C-51.98863724 27.55991624 -50.37154504 30.04590299 -49 33 C-47.99782936 29.41672247 -47.99782936 29.41672247 -49 26 C-49.66 26 -50.32 26 -51 26 C-50.67 25.34 -50.34 24.68 -50 24 C-50.33 23.67 -50.66 23.34 -51 23 C-50.34 22.67 -49.68 22.34 -49 22 C-48.67 21.01 -48.34 20.02 -48 19 C-47.01 19 -46.02 19 -45 19 C-44.67 19.66 -44.34 20.32 -44 21 C-43.39671875 20.855625 -42.7934375 20.71125 -42.171875 20.5625 C-41.37265625 20.376875 -40.5734375 20.19125 -39.75 20 C-38.96109375 19.814375 -38.1721875 19.62875 -37.359375 19.4375 C-34.40095672 18.88891913 -31.55845835 18.97136111 -28.5625 19.125 C-24.71154542 18.93714856 -21.99778148 17.75589506 -18.9375 15.4375 C-16.87456891 13.90693822 -15.49744819 13.46827153 -13 13 C-11.88625 12.7215625 -11.88625 12.7215625 -10.75 12.4375 C-10.1725 12.293125 -9.595 12.14875 -9 12 C-9 11.34 -9 10.68 -9 10 C-6.525 9.505 -6.525 9.505 -4 9 C-3.87625 8.21625 -3.7525 7.4325 -3.625 6.625 C-3 4 -3 4 -1 2 C-0.67 1.34 -0.34 0.68 0 0 Z " fill="#FBE9C3" transform="translate(150,112)"/>
<path d="M0 0 C2.0625 1.625 2.0625 1.625 4 4 C3.835 4.969375 3.67 5.93875 3.5 6.9375 C2.61786993 10.14139391 2.61786993 10.14139391 4.9375 12.875 C5.9584375 13.926875 5.9584375 13.926875 7 15 C7 14.01 7 13.02 7 12 C7.33 11.34 7.66 10.68 8 10 C7.79375 9.38125 7.5875 8.7625 7.375 8.125 C7 6 7 6 8.4375 3.75 C8.953125 3.1725 9.46875 2.595 10 2 C10.99 3.32 11.98 4.64 13 6 C12.01 6 11.02 6 10 6 C10.68449219 6.65355469 11.36898437 7.30710938 12.07421875 7.98046875 C15.61077461 11.51702461 18.68763404 15.41425584 21.8125 19.3125 C22.7087207 20.42334961 22.7087207 20.42334961 23.62304688 21.55664062 C25.0846418 23.36901834 26.54354027 25.183495 28 27 C27.34 25.35 26.68 23.7 26 22 C27.32 22.66 28.64 23.32 30 24 C28.68 22.68 27.36 21.36 26 20 C26.33 19.34 26.66 18.68 27 18 C31.2626362 22.15207792 35.26795129 26.36321221 39 31 C35.49881962 26.51848911 31.76354036 22.26041226 28 18 C28.33 17.34 28.66 16.68 29 16 C39.48739496 26.28571429 39.48739496 26.28571429 42 30 C42 30.99 42 31.98 42 33 C41.01 33 40.02 33 39 33 C39 33.66 39 34.32 39 35 C36.36 35.66 33.72 36.32 31 37 C28.69 34.03 26.38 31.06 24 28 C25.98 30.97 27.96 33.94 30 37 C29.505 37.99 29.505 37.99 29 39 C26.03 35.04 23.06 31.08 20 27 C22.29034467 31.02784753 24.59825758 35.03712501 27 39 C24.525 39.495 24.525 39.495 22 40 C20.35 37.69 18.7 35.38 17 33 C18.32 34.98 19.64 36.96 21 39 C20.505 39.99 20.505 39.99 20 41 C19.505 40.505 19.505 40.505 19 40 C18.34 40.66 17.68 41.32 17 42 C16.34 41.34 15.68 40.68 15 40 C14.67 40.66 14.34 41.32 14 42 C9.125 40.125 9.125 40.125 8 39 C7.67 39.66 7.34 40.32 7 41 C6.34 40.67 5.68 40.34 5 40 C3.4221875 39.814375 3.4221875 39.814375 1.8125 39.625 C-3.49532145 38.75486534 -8.5064694 37.3155378 -12 33 C-11.01 32.01 -10.02 31.02 -9 30 C-7.68 30.66 -6.36 31.32 -5 32 C-4.34 31.34 -3.68 30.68 -3 30 C-3.3185177 27.89179203 -3.3185177 27.89179203 -4 26 C-1.38472619 28.36620011 0.26440562 30.942048 2 34 C3.31705318 28.55782643 3.31705318 28.55782643 1.4375 23.5 C0.963125 22.675 0.48875 21.85 0 21 C0.33 20.01 0.66 19.02 1 18 C0.62864129 15.17767379 -0.01132103 12.97497457 -1.1875 10.375 C-1.5896875 9.199375 -1.5896875 9.199375 -2 8 C-1.34 7.01 -0.68 6.02 0 5 C-0.66 3.68 -1.32 2.36 -2 1 C-1.34 0.67 -0.68 0.34 0 0 Z " fill="#F9DFA4" transform="translate(99,145)"/>
<path d="M0 0 C0.70125 0.45375 1.4025 0.9075 2.125 1.375 C4.92303965 3.08552749 4.92303965 3.08552749 7.9375 3.9375 C11.43047016 5.14934679 14.06490509 6.76373721 17 9 C17 9.66 17 10.32 17 11 C17.5775 11.185625 18.155 11.37125 18.75 11.5625 C22.00733672 13.64357624 23.76068088 16.34479299 25 20 C24.25 22.9375 24.25 22.9375 23 25 C22.505 23.515 22.505 23.515 22 22 C21.505 21.01 21.505 21.01 21 20 C20.566875 21.11375 20.566875 21.11375 20.125 22.25 C19.17697356 24.56739797 18.15154089 26.77917115 17 29 C16.01 29 15.02 29 14 29 C13.67 29.66 13.34 30.32 13 31 C12.01 29.02 11.02 27.04 10 25 C10 26.32 10 27.64 10 29 C9.38001259 31.01495907 8.72045764 33.0187415 8 35 C8.99 35 9.98 35 11 35 C11.33 34.34 11.66 33.68 12 33 C12.66 33 13.32 33 14 33 C14.33 33.99 14.66 34.98 15 36 C14.34 36.66 13.68 37.32 13 38 C10.375 37.625 10.375 37.625 8 37 C7.67 37.66 7.34 38.32 7 39 C6.67 39 6.34 39 6 39 C4.43727811 43.39253773 4.43727811 43.39253773 4 48 C5.485 47.505 5.485 47.505 7 47 C7.33 49.31 7.66 51.62 8 54 C7.2575 53.67 6.515 53.34 5.75 53 C2.65120658 51.87316603 0.26180736 51.49527706 -2.875 52.75 C-5 53 -5 53 -8.25 51.25 C-9.1575 50.5075 -10.065 49.765 -11 49 C-11 48.01 -11 47.02 -11 46 C-11.495 44.515 -11.495 44.515 -12 43 C-10.5625 39.8125 -10.5625 39.8125 -9 37 C-10.05270463 35.84188612 -10.05270463 35.84188612 -12 35 C-11.3125 32.125 -11.3125 32.125 -10 29 C-7.375 27.625 -7.375 27.625 -5 27 C-5.33 25.68 -5.66 24.36 -6 23 C-4.70141061 23.56775536 -3.41129559 24.15491663 -2.125 24.75 C-1.04605469 25.23726562 -1.04605469 25.23726562 0.0546875 25.734375 C2.3370674 27.21929686 3.00375898 28.50415408 4 31 C4 30.34 4 29.68 4 29 C4.33 28.01 4.66 27.02 5 26 C4.42697412 23.85550237 4.42697412 23.85550237 3.5 21.625 C2.20302084 18.02749673 1.67759019 15.72679128 3 12 C2.67 12 2.34 12 2 12 C1.67 12.66 1.34 13.32 1 14 C0.01 14 -0.98 14 -2 14 C-2.625 12.1875 -2.625 12.1875 -3 10 C-1 7 -1 7 1 5 C0.67958603 2.39719432 0.67958603 2.39719432 0 0 Z " fill="#FBEBC7" transform="translate(127,40)"/>
<path d="M0 0 C0.33 0 0.66 0 1 0 C1 5.94 1 11.88 1 18 C1.66 18 2.32 18 3 18 C3 15.36 3 12.72 3 10 C3.33 10 3.66 10 4 10 C4.06058594 10.81984375 4.12117188 11.6396875 4.18359375 12.484375 C4.26738281 13.56203125 4.35117188 14.6396875 4.4375 15.75 C4.51871094 16.81734375 4.59992188 17.8846875 4.68359375 18.984375 C4.94090773 21.43679962 5.31812218 23.63921291 6 26 C8.64 26 11.28 26 14 26 C13.979375 24.824375 13.95875 23.64875 13.9375 22.4375 C13.93063649 18.54588984 14.42946985 14.85107848 15 11 C15.25283073 6.83938967 15.25283073 6.83938967 14 3 C19.75 2 19.75 2 22 2 C23.299375 1.938125 24.59875 1.87625 25.9375 1.8125 C29.73984059 1.79187247 29.73984059 1.79187247 31.875 3.5 C32.24625 3.995 32.6175 4.49 33 5 C33.66 5 34.32 5 35 5 C35 7.33333333 35 9.66666667 35 12 C35.66 12 36.32 12 37 12 C37 14.31 37 16.62 37 19 C36.34 19 35.68 19 35 19 C34.34 18.01 33.68 17.02 33 16 C32.01 16.495 32.01 16.495 31 17 C30.67 15.35 30.34 13.7 30 12 C29.34 13.32 28.68 14.64 28 16 C27.34 15.67 26.68 15.34 26 15 C23.7763932 16.9254644 23.7763932 16.9254644 23 20 C22.34870203 21.34090759 21.68486725 22.67592331 21 24 C21.66 24.33 22.32 24.66 23 25 C22.67 25.66 22.34 26.32 22 27 C20.68 27 19.36 27 18 27 C18.66 27.99 19.32 28.98 20 30 C20.66 29.34 21.32 28.68 22 28 C23 29 23 29 23.0625 32.0625 C23.041875 33.031875 23.02125 34.00125 23 35 C21.515 35.495 21.515 35.495 20 36 C20.66 37.98 21.32 39.96 22 42 C20.515 42.495 20.515 42.495 19 43 C17.515 40.525 17.515 40.525 16 38 C15.01 40.475 15.01 40.475 14 43 C6.55469826 38.86372125 3.22063328 33.77022676 0 26 C-1.18113902 21.70297277 -1.14949545 17.42551153 -1.125 13 C-1.12886719 12.30132812 -1.13273437 11.60265625 -1.13671875 10.8828125 C-1.12963657 7.12925702 -0.89787023 3.64848855 0 0 Z " fill="#FCF1D8" transform="translate(66,126)"/>
<path d="M0 0 C0.66 1.32 1.32 2.64 2 4 C2.33 3.34 2.66 2.68 3 2 C4.86328125 2.60546875 4.86328125 2.60546875 7 4 C8.23046875 6.86328125 8.23046875 6.86328125 9.1875 10.3125 C9.51105469 11.44300781 9.83460938 12.57351562 10.16796875 13.73828125 C12.66647614 23.53289944 12.56668438 32.21451582 10 42 C8.9375 40.125 8.9375 40.125 8 38 C8.495 37.01 8.495 37.01 9 36 C9.07116382 33.62597499 9.08409085 31.24999323 9.0625 28.875 C9.05347656 27.59367187 9.04445312 26.31234375 9.03515625 24.9921875 C9.02355469 24.00476563 9.01195312 23.01734375 9 22 C8.01 22 7.02 22 6 22 C6 26.29 6 30.58 6 35 C5.67 35 5.34 35 5 35 C4.505 29.06 4.505 29.06 4 23 C1.36 22.67 -1.28 22.34 -4 22 C-5.2608746 25.0372678 -5.2608746 25.0372678 -4.5 28.5 C-3.98812575 32.08311975 -4.08940666 33.7167546 -6.18359375 36.66796875 C-8.81028838 38.59421148 -10.84452814 38.36333066 -14.0625 38.3125 C-15.12597656 38.30863281 -16.18945312 38.30476563 -17.28515625 38.30078125 C-20 38 -20 38 -22 36 C-25.09926819 36.32198966 -25.09926819 36.32198966 -28 37 C-28.33 35.68 -28.66 34.36 -29 33 C-28.484375 33.20625 -27.96875 33.4125 -27.4375 33.625 C-23.96734329 34.15887026 -21.29364209 33.07676761 -18 32 C-17.67 32.66 -17.34 33.32 -17 34 C-16.01 33.505 -16.01 33.505 -15 33 C-14.67 33 -14.34 33 -14 33 C-14 31.68 -14 30.36 -14 29 C-14.66 29 -15.32 29 -16 29 C-16.33 29.66 -16.66 30.32 -17 31 C-18.07310858 27.72814447 -17.89263102 25.57052408 -17.0625 22.25 C-16.86785156 21.45078125 -16.67320312 20.6515625 -16.47265625 19.828125 C-16.31667969 19.22484375 -16.16070312 18.6215625 -16 18 C-14.6078125 18.309375 -14.6078125 18.309375 -13.1875 18.625 C-9.84826598 19.36692966 -9.84826598 19.36692966 -7 17 C-8.98 17 -10.96 17 -13 17 C-13 9.75 -13 9.75 -11 6 C-10.1028125 7.2375 -10.1028125 7.2375 -9.1875 8.5 C-8.465625 9.325 -7.74375 10.15 -7 11 C-6.01 11 -5.02 11 -4 11 C-4 9.02 -4 7.04 -4 5 C-3.34 5 -2.68 5 -2 5 C-1.34 3.35 -0.68 1.7 0 0 Z " fill="#FCF4DF" transform="translate(148,58)"/>
<path d="M0 0 C0.721875 0.33 1.44375 0.66 2.1875 1 C5.0476701 2.01694937 6.99612163 2.24355771 10 2 C10.66 1.67 11.32 1.34 12 1 C13.37562854 2.28965176 14.70766393 3.62689293 16 5 C16 5.66 16 6.32 16 7 C16.70125 6.773125 17.4025 6.54625 18.125 6.3125 C21.87700275 5.90467361 23.79431057 7.13622707 27 9 C27 9.99 27 10.98 27 12 C26.34 12.33 25.68 12.66 25 13 C25.495 13.99 25.495 13.99 26 15 C25.01 15 24.02 15 23 15 C23.99 15.99 24.98 16.98 26 18 C25.01 18 24.02 18 23 18 C23.99 18.66 24.98 19.32 26 20 C25.34 22.64 24.68 25.28 24 28 C19.49653301 25.47805848 15.320445 22.88029667 11 20 C14.96 22.97 18.92 25.94 23 29 C22.01 29.33 21.02 29.66 20 30 C19.34 29.67 18.68 29.34 18 29 C18.66 29.45375 19.32 29.9075 20 30.375 C20.66 30.91125 21.32 31.4475 22 32 C22 32.66 22 33.32 22 34 C21.34 34 20.68 34 20 34 C20 34.66 20 35.32 20 36 C17.14053687 34.69174889 14.99552749 33.25124967 12.6875 31.125 C10.34230035 29.04313844 8.53266901 27.76192572 5.6875 26.3125 C-0.67693415 22.91331358 -7.18920117 15.58441273 -10 9 C-7.50638429 10.20381448 -5.31856917 11.45428722 -3 13 C-3 12.01 -3 11.02 -3 10 C-2.01 10 -1.02 10 0 10 C0 9.67 0 9.34 0 9 C3 9 3 9 5 10 C4.67 9.34 4.34 8.68 4 8 C8.10958767 9.45044271 11.43258745 11.51110752 15 14 C14.34 13.38125 13.68 12.7625 13 12.125 C11 10 11 10 11 8 C9.21298942 6.74387081 7.36907362 5.56791195 5.5 4.4375 C3.65213658 3.31524962 1.81455865 2.17533912 0 1 C0 0.67 0 0.34 0 0 Z " fill="#FADDA0" transform="translate(133,128)"/>
<path d="M0 0 C0.66 0 1.32 0 2 0 C2 0.66 2 1.32 2 2 C2.66 2 3.32 2 4 2 C6.10486432 7.93571738 7.75820687 13.8268553 9 20 C9.20625 21.010625 9.4125 22.02125 9.625 23.0625 C9.810625 24.0215625 9.810625 24.0215625 10 25 C8.88625 24.649375 7.7725 24.29875 6.625 23.9375 C3.19735524 22.62760669 3.19735524 22.62760669 1 24 C-0.37562854 22.71034824 -1.70766393 21.37310707 -3 20 C-3 19.34 -3 18.68 -3 18 C-3.93972656 18.12568359 -3.93972656 18.12568359 -4.8984375 18.25390625 C-5.71570313 18.35574219 -6.53296875 18.45757812 -7.375 18.5625 C-8.18710938 18.66691406 -8.99921875 18.77132812 -9.8359375 18.87890625 C-12 19 -12 19 -14 18 C-10.7 20.31 -7.4 22.62 -4 25 C-4.33 25.66 -4.66 26.32 -5 27 C-3.68 28.32 -2.36 29.64 -1 31 C-5.10958767 29.54955729 -8.43258745 27.48889248 -12 25 C-11.34 25.99 -10.68 26.98 -10 28 C-11.32 27.34 -12.64 26.68 -14 26 C-14 26.33 -14 26.66 -14 27 C-15.33333333 27 -16.66666667 27 -18 27 C-18 27.99 -18 28.98 -18 30 C-18.99 30 -19.98 30 -21 30 C-22.33333333 28.66666667 -23.66666667 27.33333333 -25 26 C-26.96879323 24.93988057 -28.96435867 23.92529151 -31 23 C-29.17017662 19.77089991 -28.19368116 19.05986509 -24.5625 17.9375 C-22.7990625 17.4734375 -22.7990625 17.4734375 -21 17 C-19.64377755 16.03126968 -18.30582947 15.03565785 -17 14 C-15 13.375 -15 13.375 -13 13 C-11.88625 12.7215625 -11.88625 12.7215625 -10.75 12.4375 C-10.1725 12.293125 -9.595 12.14875 -9 12 C-9 11.34 -9 10.68 -9 10 C-7.35 9.67 -5.7 9.34 -4 9 C-3.87625 8.21625 -3.7525 7.4325 -3.625 6.625 C-3 4 -3 4 -1 2 C-0.67 1.34 -0.34 0.68 0 0 Z " fill="#FAE7BD" transform="translate(150,112)"/>
<path d="M0 0 C0.721875 0.61875 1.44375 1.2375 2.1875 1.875 C4.79056634 4.05537574 4.79056634 4.05537574 7.4128418 4.88818359 C10.36313041 6.15605321 11.96915419 7.62493635 14.20703125 9.9140625 C14.95791016 10.67460938 15.70878906 11.43515625 16.48242188 12.21875 C17.25134766 13.0128125 18.02027344 13.806875 18.8125 14.625 C19.99489258 15.82769531 19.99489258 15.82769531 21.20117188 17.0546875 C23.14106673 19.02985317 25.07360084 21.01168427 27 23 C26.505 24.485 26.505 24.485 26 26 C23.50638429 24.79618552 21.31856917 23.54571278 19 22 C18.01 22 17.02 22 16 22 C17.2065625 23.0828125 17.2065625 23.0828125 18.4375 24.1875 C21.0275296 27.03021542 21.7967148 28.23922385 22 32 C21.67 32.66 21.34 33.32 21 34 C20.34 34 19.68 34 19 34 C19 33.34 19 32.68 19 32 C18.21625 31.690625 17.4325 31.38125 16.625 31.0625 C14 30 14 30 12 29 C12.33 29.66 12.66 30.32 13 31 C10.32788975 29.91136249 8.8001238 28.79734774 6.75 26.71875 C3.89506958 23.89626197 0.91835689 21.56626276 -2.3125 19.1875 C-2.86228516 18.78080078 -3.41207031 18.37410156 -3.97851562 17.95507812 C-5.31625547 16.96631389 -6.65773623 15.98261415 -8 15 C-7.01 14.67 -6.02 14.34 -5 14 C-5.66 13.01 -6.32 12.02 -7 11 C-1.86415346 12.60495204 1.80738565 15.73118203 6 19 C2.04 15.7 -1.92 12.4 -6 9 C-2.89448334 9 -1.64738916 9.5393715 1 11 C-0.65 9.68 -2.3 8.36 -4 7 C-3.67 6.34 -3.34 5.68 -3 5 C-0.69 6.65 1.62 8.3 4 10 C3.01 9.21625 2.02 8.4325 1 7.625 C0.01 6.75875 -0.98 5.8925 -2 5 C-2 4.34 -2 3.68 -2 3 C0.82868857 4.29603412 2.9701021 5.69189598 5.234375 7.8203125 C5.80800781 8.35527344 6.38164063 8.89023437 6.97265625 9.44140625 C7.55917969 9.99699219 8.14570312 10.55257812 8.75 11.125 C9.35199219 11.68832031 9.95398438 12.25164062 10.57421875 12.83203125 C12.05334151 14.21724146 13.52719641 15.6080729 15 17 C11.28376959 12.07157062 6.89862243 8.2518078 2.265625 4.20703125 C1.51796875 3.47871094 0.7703125 2.75039063 0 2 C0 1.34 0 0.68 0 0 Z " fill="#F9DD9E" transform="translate(76,55)"/>
<path d="M0 0 C4.83842472 -0.56610454 7.04082085 1.09171728 10.8125 4 C11.78832031 4.7425 12.76414062 5.485 13.76953125 6.25 C14.50558594 6.8275 15.24164063 7.405 16 8 C15.01 8 14.02 8 13 8 C12.67 8.99 12.34 9.98 12 11 C12.33 11.66 12.66 12.32 13 13 C12.01 13 11.02 13 10 13 C10.99 13.99 11.98 14.98 13 16 C12.01 16 11.02 16 10 16 C12.90600261 17.25664978 14.79604584 18 18 18 C18 17.34 18 16.68 18 16 C21.37503669 17.1858237 23.64722731 18.27573689 26 21 C20.25 25 20.25 25 18 25 C18 25.66 18 26.32 18 27 C14.125 28 14.125 28 13 28 C13 28.99 13 29.98 13 31 C10.36095629 32.41377341 7.92879371 33.37240135 5 34 C4.67 32.35 4.34 30.7 4 29 C3.34 29 2.68 29 2 29 C2 27.68 2 26.36 2 25 C2.99 25 3.98 25 5 25 C4.195625 24.773125 3.39125 24.54625 2.5625 24.3125 C0 23 0 23 -0.8125 20.5625 C-1 18 -1 18 -1 15 C-0.01 15 0.98 15 2 15 C1.01 14.01 0.02 13.02 -1 12 C-0.01 12 0.98 12 2 12 C1.01 11.01 0.02 10.02 -1 9 C-0.01 9 0.98 9 2 9 C1.01 8.34 0.02 7.68 -1 7 C-0.67 5.68 -0.34 4.36 0 3 C1.98 3.495 1.98 3.495 4 4 C2.68 2.68 1.36 1.36 0 0 Z " fill="#FAE2AD" transform="translate(66,75)"/>
<path d="M0 0 C2.0625 1.625 2.0625 1.625 4 4 C3.835 4.94875 3.67 5.8975 3.5 6.875 C2.6614821 10.10463348 2.6614821 10.10463348 4.625 13.0625 C6.95265119 16.05831339 6.95265119 16.05831339 9.75 18.6875 C12 21 12 21 12 24 C11.01 24 10.02 24 9 24 C9.99 25.98 10.98 27.96 12 30 C11.67 28.68 11.34 27.36 11 26 C15.12172083 29.76843047 18.63068221 33.88904305 21 39 C20.505 39.99 20.505 39.99 20 41 C19.505 40.505 19.505 40.505 19 40 C18.34 40.66 17.68 41.32 17 42 C16.34 41.34 15.68 40.68 15 40 C14.67 40.66 14.34 41.32 14 42 C9.125 40.125 9.125 40.125 8 39 C7.67 39.66 7.34 40.32 7 41 C6.34 40.67 5.68 40.34 5 40 C3.4221875 39.814375 3.4221875 39.814375 1.8125 39.625 C-3.49532145 38.75486534 -8.5064694 37.3155378 -12 33 C-11.01 32.01 -10.02 31.02 -9 30 C-7.68 30.66 -6.36 31.32 -5 32 C-4.34 31.34 -3.68 30.68 -3 30 C-3.3185177 27.89179203 -3.3185177 27.89179203 -4 26 C-1.38472619 28.36620011 0.26440562 30.942048 2 34 C3.31705318 28.55782643 3.31705318 28.55782643 1.4375 23.5 C0.963125 22.675 0.48875 21.85 0 21 C0.33 20.01 0.66 19.02 1 18 C0.62864129 15.17767379 -0.01132103 12.97497457 -1.1875 10.375 C-1.5896875 9.199375 -1.5896875 9.199375 -2 8 C-1.34 7.01 -0.68 6.02 0 5 C-0.66 3.68 -1.32 2.36 -2 1 C-1.34 0.67 -0.68 0.34 0 0 Z " fill="#F9E0A8" transform="translate(99,145)"/>
<path d="M0 0 C1.32 1.32 2.64 2.64 4 4 C3.67 2.68 3.34 1.36 3 0 C3.99 0 4.98 0 6 0 C6.825 -0.103125 7.65 -0.20625 8.5 -0.3125 C9.7375 -0.1578125 9.7375 -0.1578125 11 0 C12.8125 2.5 12.8125 2.5 14 5 C13.67 3.68 13.34 2.36 13 1 C15.31 1 17.62 1 20 1 C20.33 2.32 20.66 3.64 21 5 C21.66 5 22.32 5 23 5 C23.33 6.32 23.66 7.64 24 9 C23.01 9.66 22.02 10.32 21 11 C20.67 11.99 20.34 12.98 20 14 C20.33 14.66 20.66 15.32 21 16 C23.05270463 14.15811388 23.05270463 14.15811388 24 12 C24.66 11.67 25.32 11.34 26 11 C26.625 12.75 26.625 12.75 27 15 C26.4740625 15.928125 26.4740625 15.928125 25.9375 16.875 C24.69176844 19.09165381 24.69176844 19.09165381 25.8125 21.9375 C26.204375 22.948125 26.59625 23.95875 27 25 C28.40625 31.1875 28.40625 31.1875 27 34 C26.01 34.495 26.01 34.495 25 35 C24.63648438 34.12988281 24.63648438 34.12988281 24.265625 33.2421875 C22.65179046 29.4807116 21.09652355 25.94894887 18.6875 22.625 C18.130625 21.75875 17.57375 20.8925 17 20 C17.33 19.01 17.66 18.02 18 17 C17.67 16.34 17.34 15.68 17 15 C16.34 15.66 15.68 16.32 15 17 C15.3185177 19.10820797 15.3185177 19.10820797 16 21 C13.33264727 18.51047079 11.44253657 16.36591866 10 13 C9.34 13 8.68 13 8 13 C7.67 13.66 7.34 14.32 7 15 C3.0747975 11.29909479 0.05419844 7.45040344 -3 3 C-2.01 3 -1.02 3 0 3 C1.6875 5 1.6875 5 3 7 C2.505 6.21625 2.01 5.4325 1.5 4.625 C0 2 0 2 0 0 Z " fill="#FADFA5" transform="translate(105,38)"/>
<path d="M0 0 C1.0828125 0.495 1.0828125 0.495 2.1875 1 C5.0476701 2.01694937 6.99612163 2.24355771 10 2 C10.66 1.67 11.32 1.34 12 1 C13.37562854 2.28965176 14.70766393 3.62689293 16 5 C16 5.66 16 6.32 16 7 C16.70125 6.773125 17.4025 6.54625 18.125 6.3125 C21.87700275 5.90467361 23.79431057 7.13622707 27 9 C27 9.99 27 10.98 27 12 C26.01 12.495 26.01 12.495 25 13 C25.33 13.66 25.66 14.32 26 15 C25.01 15 24.02 15 23 15 C23.99 15.99 24.98 16.98 26 18 C25.01 18 24.02 18 23 18 C23.99 18.66 24.98 19.32 26 20 C25.67 21.65 25.34 23.3 25 25 C20.68607774 24.5206753 18.83430453 23.2542015 16 20 C16.99 20 17.98 20 19 20 C18.00097656 19.30132812 17.00195312 18.60265625 15.97265625 17.8828125 C14.669112 16.96376691 13.36573523 16.04448374 12.0625 15.125 C11.40314453 14.66480469 10.74378906 14.20460937 10.06445312 13.73046875 C5.11328125 10.2265625 5.11328125 10.2265625 4 8 C8.10958767 9.45044271 11.43258745 11.51110752 15 14 C14.34 13.38125 13.68 12.7625 13 12.125 C11 10 11 10 11 8 C9.21298942 6.74387081 7.36907362 5.56791195 5.5 4.4375 C3.65213658 3.31524962 1.81455865 2.17533912 0 1 C0 0.67 0 0.34 0 0 Z " fill="#FADB95" transform="translate(133,128)"/>
<path d="M0 0 C0.99 0 1.98 0 3 0 C2.855625 0.81597656 2.71125 1.63195312 2.5625 2.47265625 C-0.20042999 20.10552195 0.07238871 37.58291421 4 55 C2.68 54.01 1.36 53.02 0 52 C-0.66 53.98 -1.32 55.96 -2 58 C-2.33 58 -2.66 58 -3 58 C-3.07545523 52.63300481 -3.12920203 47.26633363 -3.16479492 41.89892578 C-3.17966831 40.08181363 -3.19997328 38.26473594 -3.22631836 36.44775391 C-3.40254707 23.95970399 -2.4902451 12.24627861 0 0 Z " fill="#FBFAF2" transform="translate(3,86)"/>
<path d="M0 0 C0.721875 0.61875 1.44375 1.2375 2.1875 1.875 C4.79056634 4.05537574 4.79056634 4.05537574 7.4128418 4.88818359 C10.36313041 6.15605321 11.96915419 7.62493635 14.20703125 9.9140625 C14.95791016 10.67460938 15.70878906 11.43515625 16.48242188 12.21875 C17.25134766 13.0128125 18.02027344 13.806875 18.8125 14.625 C19.99489258 15.82769531 19.99489258 15.82769531 21.20117188 17.0546875 C23.14106673 19.02985317 25.07360084 21.01168427 27 23 C26.67 23.99 26.34 24.98 26 26 C23.50638429 24.79618552 21.31856917 23.54571278 19 22 C18.01 22 17.02 22 16 22 C16 22.33 16 22.66 16 23 C15.01 23 14.02 23 13 23 C9 18.65714286 9 18.65714286 9 16 C8.1028125 15.3503125 8.1028125 15.3503125 7.1875 14.6875 C4.65913667 12.73704829 3.63144603 10.71907672 2 8 C0.68036291 6.98199424 -0.65009646 5.97751635 -2 5 C-2 4.34 -2 3.68 -2 3 C0.82868857 4.29603412 2.9701021 5.69189598 5.234375 7.8203125 C5.80800781 8.35527344 6.38164063 8.89023437 6.97265625 9.44140625 C7.55917969 9.99699219 8.14570312 10.55257812 8.75 11.125 C9.35199219 11.68832031 9.95398438 12.25164062 10.57421875 12.83203125 C12.05334151 14.21724146 13.52719641 15.6080729 15 17 C11.28376959 12.07157062 6.89862243 8.2518078 2.265625 4.20703125 C1.51796875 3.47871094 0.7703125 2.75039063 0 2 C0 1.34 0 0.68 0 0 Z " fill="#FAD685" transform="translate(76,55)"/>
<path d="M0 0 C2.31 0.33 4.62 0.66 7 1 C7 1.66 7 2.32 7 3 C7.66 3 8.32 3 9 3 C9 5.97 9 8.94 9 12 C9.99 11.67 10.98 11.34 12 11 C12.33 13.31 12.66 15.62 13 18 C12.2575 17.67 11.515 17.34 10.75 17 C7.65120658 15.87316603 5.26180736 15.49527706 2.125 16.75 C0 17 0 17 -3.25 15.25 C-4.1575 14.5075 -5.065 13.765 -6 13 C-6 12.01 -6 11.02 -6 10 C-6.33 9.01 -6.66 8.02 -7 7 C-5.5625 4.8125 -5.5625 4.8125 -4 3 C-3.67 4.98 -3.34 6.96 -3 9 C-2.38125 8.505 -1.7625 8.01 -1.125 7.5 C1 6 1 6 3 6 C3 5.01 3 4.02 3 3 C2.34 3 1.68 3 1 3 C0.67 2.01 0.34 1.02 0 0 Z " fill="#FCEDCC" transform="translate(122,76)"/>
<path d="M0 0 C0.66 0 1.32 0 2 0 C3.73494401 2.00575003 5.34496941 4.01081797 6.9375 6.125 C7.60168945 6.97964844 7.60168945 6.97964844 8.27929688 7.8515625 C10.99301053 11.41053122 13.01595165 14.97405933 15 19 C18.43113408 22.36929988 18.43113408 22.36929988 23 23 C24.6875 24.5 24.6875 24.5 26 26 C25.34 26 24.68 26 24 26 C24.33 27.32 24.66 28.64 25 30 C24.34 30 23.68 30 23 30 C22.67 30.66 22.34 31.32 22 32 C22 31.34 22 30.68 22 30 C21.34 30 20.68 30 20 30 C20.33 29.01 20.66 28.02 21 27 C18.69 25.02 16.38 23.04 14 21 C13.34 21.99 12.68 22.98 12 24 C-1.19103774 11.16981132 -1.19103774 11.16981132 -5 4 C-1.78956118 5.38188453 0.04936365 6.92421903 2.25 9.625 C2.77078125 10.25664063 3.2915625 10.88828125 3.828125 11.5390625 C4.40820312 12.26222656 4.40820312 12.26222656 5 13 C4.566875 12.45730469 4.13375 11.91460937 3.6875 11.35546875 C3.130625 10.64003906 2.57375 9.92460938 2 9.1875 C1.443125 8.47980469 0.88625 7.77210937 0.3125 7.04296875 C-1 5 -1 5 -1 2 C1.64 4.97 4.28 7.94 7 11 C5.5459375 9.1128125 5.5459375 9.1128125 4.0625 7.1875 C2.14240773 4.69546535 1.00496852 3.01490557 0 0 Z " fill="#FAE4B7" transform="translate(90,43)"/>
<path d="M0 0 C1.32 0 2.64 0 4 0 C4.22786458 2.05078125 4.45572917 4.1015625 4.68359375 6.15234375 C4.81886614 8.01140229 4.81886614 8.01140229 6 9 C6.2189531 13.2024276 6.18578949 17.41060779 6.18530273 21.61816406 C6.18747673 23.72742258 6.20559231 25.8361475 6.22460938 27.9453125 C6.22754581 29.29166488 6.22952893 30.63801974 6.23046875 31.984375 C6.23457764 33.20866211 6.23868652 34.43294922 6.24291992 35.69433594 C6.00719909 38.90203455 5.37795835 41.11779036 4 44 C3.67 44 3.34 44 3 44 C2.27840455 39.39544685 1.8439094 34.91176672 1.71875 30.25390625 C1.68136719 29.00416016 1.64398438 27.75441406 1.60546875 26.46679688 C1.57066406 25.17837891 1.53585938 23.88996094 1.5 22.5625 C1.21634437 11.2436914 1.21634437 11.2436914 0 0 Z " fill="#FCF8ED" transform="translate(219,88)"/>
<path d="M0 0 C0.66 0 1.32 0 2 0 C2 0.66 2 1.32 2 2 C2.66 2 3.32 2 4 2 C5.95088223 7.61854082 7.63172347 13.21113776 9 19 C4.40191871 18.46105575 1.13215631 17.23428472 -2.875 14.9375 C-3.84179688 14.38964844 -4.80859375 13.84179688 -5.8046875 13.27734375 C-6.52914062 12.85582031 -7.25359375 12.43429688 -8 12 C-7.01 11.34 -6.02 10.68 -5 10 C-4.29618843 8.01276732 -3.6288189 6.01222047 -3 4 C-2.34 3.34 -1.68 2.68 -1 2 C-0.67 1.34 -0.34 0.68 0 0 Z " fill="#FAE0A7" transform="translate(150,112)"/>
<path d="M0 0 C5.12527635 4.18389906 10.17619795 8.54904814 14 14 C14 14.99 14 15.98 14 17 C13.01 17 12.02 17 11 17 C11 17.66 11 18.32 11 19 C6.77202073 20.58549223 6.77202073 20.58549223 4 20 C0.86899656 16.98879148 -1.57063974 13.59040517 -4 10 C-3.67 9.34 -3.34 8.68 -3 8 C-1.515 8.99 -1.515 8.99 0 10 C-0.66 8.68 -1.32 7.36 -2 6 C-0.68 6.66 0.64 7.32 2 8 C0.68 6.68 -0.64 5.36 -2 4 C-1.67 3.34 -1.34 2.68 -1 2 C3.2626362 6.15207792 7.26795129 10.36321221 11 15 C7.95482085 11.10217068 4.71809663 7.42555575 1.390625 3.76953125 C0 2 0 2 0 0 Z " fill="#F8CB64" transform="translate(127,161)"/>
<path d="M0 0 C3.67835299 1.50103194 5.59166622 3.60556527 8.125 6.625 C12.08465139 11.1710224 16.29694027 14.81720982 21.12890625 18.40625 C21.74636719 18.9321875 22.36382812 19.458125 23 20 C23 20.66 23 21.32 23 22 C23.639375 22.28875 24.27875 22.5775 24.9375 22.875 C27 24 27 24 28 26 C22.67302761 24.54718935 19.63597198 20.91888622 16 17 C18.97088618 20.99926986 22.12948725 23.92118304 26 27 C25.67 27.66 25.34 28.32 25 29 C21.12562874 25.6763008 17.29305268 22.36682394 13.75 18.6875 C11.47093955 16.46023637 9.92483056 15.12493483 7 14 C7 13.01 7 12.02 7 11 C5.45889291 9.20825558 5.45889291 9.20825558 3.5 7.5 C1.53125 5.71875 1.53125 5.71875 0 4 C0 2.66666667 0 1.33333333 0 0 Z " fill="#FAE8C2" transform="translate(123,140)"/>
<path d="M0 0 C3.7937315 1.26457717 4.45106207 2.86374018 6.5234375 6.11328125 C7.99256371 8.14780587 7.99256371 8.14780587 10.36328125 9.83984375 C13.37722141 12.30904214 15.55651026 15.11188449 17.8125 18.25 C18.21919922 18.80429687 18.62589844 19.35859375 19.04492188 19.9296875 C20.03591711 21.28210453 21.01881466 22.64044907 22 24 C21.67 24.66 21.34 25.32 21 26 C16.64236704 25.4971962 14.08094266 22.94698863 11 20 C10.70609375 19.23300781 10.4121875 18.46601562 10.109375 17.67578125 C8.29685974 13.3040455 4.99759619 10.14553132 1.8984375 6.62109375 C0 4 0 4 0 0 Z " fill="#FAD68B" transform="translate(92,41)"/>
<path d="M0 0 C2.26541954 1.66130766 3.10110827 2.66637896 3.875 5.375 C3 8.125 3 8.125 1.875 10.375 C1.545 9.715 1.215 9.055 0.875 8.375 C0.545 9.365 0.215 10.355 -0.125 11.375 C0.535 11.375 1.195 11.375 1.875 11.375 C2.205 12.365 2.535 13.355 2.875 14.375 C2.215 15.035 1.555 15.695 0.875 16.375 C0.215 16.375 -0.445 16.375 -1.125 16.375 C-2.115 16.705 -3.105 17.035 -4.125 17.375 C-5.73225635 14.16048731 -5.18248185 10.93887464 -5.125 7.375 C-6.115 7.375 -7.105 7.375 -8.125 7.375 C-6.67445055 1.81456044 -6.67445055 1.81456044 -4.25 -0.125 C-2.125 -0.625 -2.125 -0.625 0 0 Z " fill="#FAEAC5" transform="translate(123.125,67.625)"/>
<path d="M0 0 C4.14417604 1.70043587 7.24372809 4.64154624 10.5625 7.5625 C11.80906559 8.64548763 13.05647204 9.72750811 14.3046875 10.80859375 C14.9244043 11.34597168 15.54412109 11.88334961 16.18261719 12.43701172 C23.84138089 19.04504011 23.84138089 19.04504011 32 25 C31.34 25 30.68 25 30 25 C30 25.66 30 26.32 30 27 C27.14053687 25.69174889 24.99552749 24.25124967 22.6875 22.125 C20.34230035 20.04313844 18.53266901 18.76192572 15.6875 17.3125 C9.32306585 13.91331358 2.81079883 6.58441273 0 0 Z " fill="#FADA94" transform="translate(123,137)"/>
<path d="M0 0 C0.66 0 1.32 0 2 0 C3.27906846 1.72043716 4.47210991 3.50508068 5.625 5.3125 C9.55248183 11.36197292 13.70839037 17.20176146 18 23 C17.67 23.66 17.34 24.32 17 25 C13.69441855 24.76388704 12.88544745 23.87127015 10.6328125 21.33984375 C9.78621459 20.21366465 8.95075042 19.07905317 8.125 17.9375 C7.68881348 17.35057373 7.25262695 16.76364746 6.80322266 16.15893555 C5.93190912 14.98551718 5.06447607 13.80920627 4.20117188 12.62988281 C2.17242468 9.8770543 0.05588739 7.19088235 -2.0390625 4.48828125 C-3 3 -3 3 -3 1 C-2.34 1 -1.68 1 -1 1 C-0.67 1.33 -0.34 1.66 0 2 C0 1.34 0 0.68 0 0 Z " fill="#FAE4B7" transform="translate(99,40)"/>
<path d="M0 0 C3.8697943 1.58397665 6.51617198 4.20990152 9.421875 7.12109375 C9.92672424 7.62165787 10.43157349 8.12222198 10.95172119 8.63795471 C12.01316119 9.69366914 13.07201379 10.75199063 14.12841797 11.81274414 C15.74976198 13.43726151 17.38401316 15.04797149 19.01953125 16.65820312 C20.05028895 17.68668907 21.08026465 18.71595946 22.109375 19.74609375 C22.59992371 20.22743271 23.09047241 20.70877167 23.59588623 21.20469666 C27 24.65618553 27 24.65618553 27 28 C27.99 27.67 28.98 27.34 30 27 C30 27.66 30 28.32 30 29 C27.62501468 29.84820904 26.43912232 30.17160091 24.05078125 29.23828125 C21.82368832 27.89354133 20.57423351 26.57597524 18.9375 24.5625 C14.28642321 19.0482321 9.13804789 14.05442686 4 9 C4.33 8.34 4.66 7.68 5 7 C8.17469938 10.11692909 11.33835392 13.24483546 14.5 16.375 C15.40621094 17.26445312 16.31242187 18.15390625 17.24609375 19.0703125 C18.53193359 20.34648437 18.53193359 20.34648437 19.84375 21.6484375 C20.63974609 22.43395996 21.43574219 23.21948242 22.25585938 24.02880859 C24 26 24 26 24 28 C24.66 28 25.32 28 26 28 C20.67224025 21.68614797 14.94609495 15.85661062 9.0625 10.0625 C7.34281128 8.36815673 5.62523353 6.67166723 3.91015625 4.97265625 C3.15871338 4.23281494 2.40727051 3.49297363 1.63305664 2.73071289 C0 1 0 1 0 0 Z " fill="#F9C047" transform="translate(119,146)"/>
<path d="M0 0 C1.32 1.32 2.64 2.64 4 4 C3.67 2.68 3.34 1.36 3 0 C5.59320566 2.3153622 7.35052396 4.50514207 8.9375 7.5625 C10.71390075 10.86051893 12.55994859 12.37553128 16 14 C15.67 14.99 15.34 15.98 15 17 C15.38932856 19.14255793 15.38932856 19.14255793 16 21 C13.33264727 18.51047079 11.44253657 16.36591866 10 13 C9.34 13 8.68 13 8 13 C7.67 13.66 7.34 14.32 7 15 C3.0747975 11.29909479 0.05419844 7.45040344 -3 3 C-2.01 3 -1.02 3 0 3 C1.6875 5 1.6875 5 3 7 C2.505 6.21625 2.01 5.4325 1.5 4.625 C0 2 0 2 0 0 Z " fill="#FBE3AF" transform="translate(105,38)"/>
<path d="M0 0 C0.66 0 1.32 0 2 0 C2 0.99 2 1.98 2 3 C1.34 3 0.68 3 0 3 C2.64 6.3 5.28 9.6 8 13 C7.67 13.66 7.34 14.32 7 15 C4.36 12.03 1.72 9.06 -1 6 C-0.01 7.258125 0.98 8.51625 2 9.8125 C5 13.625 5 13.625 5 17 C2.36 14.03 -0.28 11.06 -3 8 C-1.34136748 11.31726504 -0.4143765 12.82103117 2.125 15.25 C3.07375 16.1575 4.0225 17.065 5 18 C4.67 18.66 4.34 19.32 4 20 C2.33599359 18.49907226 0.6944017 16.97327285 -0.9375 15.4375 C-1.85402344 14.59058594 -2.77054687 13.74367188 -3.71484375 12.87109375 C-6.39595267 9.50252101 -6.75356143 7.2418894 -7 3 C-5.5459375 2.5359375 -5.5459375 2.5359375 -4.0625 2.0625 C-1.15934208 1.30476658 -1.15934208 1.30476658 0 0 Z " fill="#F8BD42" transform="translate(90,40)"/>
<path d="M0 0 C0.5878125 0.13277344 1.175625 0.26554688 1.78125 0.40234375 C13.06251025 2.62293664 24.53919344 2.65801087 36 3 C36 3.33 36 3.66 36 4 C30.06 4.495 30.06 4.495 24 5 C24.33 5.66 24.66 6.32 25 7 C16.5657073 7.45636453 9.14043404 6.17423358 1 4 C0.67 2.68 0.34 1.36 0 0 Z " fill="#FCF1DD" transform="translate(84,218)"/>
<path d="M0 0 C3 0 3 0 4.875 1.6875 C5.926875 2.8321875 5.926875 2.8321875 7 4 C8.2065625 5.1446875 8.2065625 5.1446875 9.4375 6.3125 C12.34571292 9.36257697 14.61727147 12.52802415 17 16 C14 18 14 18 12 18 C10.88671875 16.390625 10.88671875 16.390625 9.6875 14.25 C7.57232053 10.69952018 5.44970434 8.36551155 2 6 C2 6.99 2 7.98 2 9 C0.68 7.02 -0.64 5.04 -2 3 C-1 1 -1 1 0 0 Z " fill="#F7D276" transform="translate(109,167)"/>
<path d="M0 0 C2.33333333 2.33333333 4.66666667 4.66666667 7 7 C7.99 7 8.98 7 10 7 C11.85812283 9.13025735 13.52893524 11.2239097 15.1875 13.5 C15.65091797 14.12003906 16.11433594 14.74007812 16.59179688 15.37890625 C17.7364137 16.91292881 18.86932941 18.45566943 20 20 C19.01 20 18.02 20 17 20 C14.72137289 17.516241 12.94354369 14.76415103 11 12 C12.98 14.97 14.96 17.94 17 21 C16.67 21.66 16.34 22.32 16 23 C13.03 19.04 10.06 15.08 7 11 C6.67 11.99 6.34 12.98 6 14 C4.02 11.36 2.04 8.72 0 6 C0.33 5.34 0.66 4.68 1 4 C0.60061233 1.90178785 0.60061233 1.90178785 0 0 Z " fill="#FAECC8" transform="translate(112,161)"/>
<path d="M0 0 C1.89801995 3.28990124 2.3921972 6.27720787 3 10 C3.62225605 11.68375165 4.27544365 13.35767228 5 15 C3 13 1 11 -1 9 C-1.33 9.66 -1.66 10.32 -2 11 C-2.33 10.01 -2.66 9.02 -3 8 C-3.66 8 -4.32 8 -5 8 C-4.34 9.65 -3.68 11.3 -3 13 C-3.99 12.34 -4.98 11.68 -6 11 C-6 10.34 -6 9.68 -6 9 C-6.66 9 -7.32 9 -8 9 C-5.525 12.465 -5.525 12.465 -3 16 C-3.33 16.66 -3.66 17.32 -4 18 C-9 12.5 -9 12.5 -9 8 C-8.01 8 -7.02 8 -6 8 C-6 7.34 -6 6.68 -6 6 C-6.66 6 -7.32 6 -8 6 C-8 5.34 -8 4.68 -8 4 C-6.68 4 -5.36 4 -4 4 C-4.33 3.01 -4.66 2.02 -5 1 C-3.35 0.67 -1.7 0.34 0 0 Z " fill="#FABA34" transform="translate(104,32)"/>
<path d="M0 0 C2.62153553 3.93230329 3 7.32335261 3 12 C3.99 11.01 4.98 10.02 6 9 C7.0625 10.8125 7.0625 10.8125 8 13 C7.67 13.99 7.34 14.98 7 16 C3.62537285 15.45276317 1.91765 14.9451 -1 13 C-1 12.34 -1 11.68 -1 11 C-1.598125 10.731875 -2.19625 10.46375 -2.8125 10.1875 C-4.97224808 9.01506533 -6.35790256 7.80630718 -8 6 C-7.67 5.01 -7.34 4.02 -7 3 C-6.01 3 -5.02 3 -4 3 C-3.34 3.66 -2.68 4.32 -2 5 C-1.34 3.35 -0.68 1.7 0 0 Z " fill="#FBE9BF" transform="translate(82,162)"/>
<path d="M0 0 C4.83842472 -0.56610454 7.04082085 1.09171728 10.8125 4 C11.78832031 4.7425 12.76414062 5.485 13.76953125 6.25 C14.50558594 6.8275 15.24164063 7.405 16 8 C15.01 8 14.02 8 13 8 C12.67 8.99 12.34 9.98 12 11 C12.33 11.66 12.66 12.32 13 13 C8.02790438 11.23570801 3.56561939 8.6060834 -1 6 C-0.67 5.01 -0.34 4.02 0 3 C1.98 3.495 1.98 3.495 4 4 C2.68 2.68 1.36 1.36 0 0 Z " fill="#F9D993" transform="translate(66,75)"/>
<path d="M0 0 C2 0 2 0 3.234375 1.22265625 C3.73453125 1.82980469 4.2346875 2.43695313 4.75 3.0625 C8.51504619 7.50188282 12.45798003 11.7538782 16.4375 16 C17.07719727 16.68328369 17.71689453 17.36656738 18.37597656 18.07055664 C19.91628613 19.71467692 21.45759435 21.35784634 23 23 C22.67 23.66 22.34 24.32 22 25 C21.52949219 24.4946875 21.05898437 23.989375 20.57421875 23.46875 C19.95160156 22.8190625 19.32898438 22.169375 18.6875 21.5 C18.07261719 20.8503125 17.45773438 20.200625 16.82421875 19.53125 C15.01398471 17.6785386 15.01398471 17.6785386 12 18 C10.23078829 16.3868952 8.63561303 14.74306206 7 13 C5.39987234 11.39180447 3.79544858 9.78787582 2.1875 8.1875 C0.79166667 6.79166667 -0.60416667 5.39583333 -2 4 C1 4 1 4 2.82421875 5.53125 C3.43910156 6.1809375 4.05398437 6.830625 4.6875 7.5 C5.31011719 8.1496875 5.93273437 8.799375 6.57421875 9.46875 C7.04472656 9.9740625 7.51523438 10.479375 8 11 C7.59007813 10.54109375 7.18015625 10.0821875 6.7578125 9.609375 C6.21898438 8.99578125 5.68015625 8.3821875 5.125 7.75 C4.59132813 7.14671875 4.05765625 6.5434375 3.5078125 5.921875 C2.0202513 4.02581254 0.99677564 2.18709995 0 0 Z " fill="#FBECC8" transform="translate(82,48)"/>
<path d="M0 0 C2.38022734 0.57702481 3.75956679 0.24022853 6.0625 -0.5 C7.1875 3.25 7.1875 3.25 6.0625 5.5 C5.0725 5.83 4.0825 6.16 3.0625 6.5 C1.83804716 8.12948064 1.83804716 8.12948064 0.875 10.0625 C0.276875 11.196875 -0.32125 12.33125 -0.9375 13.5 C-1.9275 13.17 -2.9175 12.84 -3.9375 12.5 C-3.92589844 11.80132812 -3.91429688 11.10265625 -3.90234375 10.3828125 C-3.89332031 9.47273437 -3.88429688 8.56265625 -3.875 7.625 C-3.86339844 6.72007812 -3.85179688 5.81515625 -3.83984375 4.8828125 C-3.77500743 2.4831415 -3.77500743 2.4831415 -4.9375 0.5 C-1.9375 -0.5 -1.9375 -0.5 0 0 Z " fill="#FEF5E3" transform="translate(84.9375,128.5)"/>
<path d="M0 0 C0.86625 0.4640625 0.86625 0.4640625 1.75 0.9375 C3.89378269 2.05926902 3.89378269 2.05926902 5.95214844 2.39624023 C8.32790337 3.09667442 9.30474844 3.95599024 11.015625 5.72265625 C11.54414062 6.26083984 12.07265625 6.79902344 12.6171875 7.35351562 C13.15601562 7.91748047 13.69484375 8.48144531 14.25 9.0625 C14.80429688 9.63033203 15.35859375 10.19816406 15.9296875 10.78320312 C17.29334214 12.18212469 18.64760417 13.59019114 20 15 C19.67 15.66 19.34 16.32 19 17 C19.33 17.33 19.66 17.66 20 18 C19.67 18.66 19.34 19.32 19 20 C18.01 20 17.02 20 16 20 C15.81695312 19.32453125 15.63390625 18.6490625 15.4453125 17.953125 C13.38000327 13.73319586 10.24657043 10.96801376 6.875 7.75 C5.57873095 6.49685536 4.28434742 5.24175629 2.9921875 3.984375 C2.41839355 3.43491211 1.84459961 2.88544922 1.25341797 2.31933594 C0 1 0 1 0 0 Z " fill="#F9D47E" transform="translate(90,63)"/>
<path d="M0 0 C0.99 0.33 1.98 0.66 3 1 C3 1.66 3 2.32 3 3 C3.86625 3.2784375 3.86625 3.2784375 4.75 3.5625 C8.00733672 5.64357624 9.76068088 8.34479299 11 12 C10.25 14.9375 10.25 14.9375 9 17 C8.67 16.01 8.34 15.02 8 14 C7.05270463 11.84188612 7.05270463 11.84188612 5 10 C4.71125 10.639375 4.4225 11.27875 4.125 11.9375 C3 14 3 14 1 15 C-0.36350375 10.0572989 0 5.0985919 0 0 Z " fill="#FAECCB" transform="translate(141,48)"/>
<path d="M0 0 C3.1414436 1.83250877 6.22602027 3.63698023 9 6 C9 6.66 9 7.32 9 8 C9.61875 8.268125 10.2375 8.53625 10.875 8.8125 C13 10 13 10 15 13 C15 13.66 15 14.32 15 15 C15.96113866 16.36161311 16.95884159 17.69855198 18 19 C15.02879676 17.6300094 12.63345438 16.03719635 10.109375 13.9609375 C9.40039062 13.38085938 8.69140625 12.80078125 7.9609375 12.203125 C7.23132813 11.59984375 6.50171875 10.9965625 5.75 10.375 C5.00492187 9.76398438 4.25984375 9.15296875 3.4921875 8.5234375 C1.65864503 7.0189924 -0.17194246 5.51110107 -2 4 C1.10551666 4 2.35261084 4.5393715 5 6 C4.175 5.38125 3.35 4.7625 2.5 4.125 C1.675 3.42375 0.85 2.7225 0 2 C0 1.34 0 0.68 0 0 Z " fill="#FAE7C1" transform="translate(72,60)"/>
<path d="M0 0 C1.65 0.33 3.3 0.66 5 1 C4.28457031 1.70511719 3.56914063 2.41023438 2.83203125 3.13671875 C0.02335285 5.94539715 -2.64932135 8.86524896 -5.3125 11.8125 C-6.19550781 12.78832031 -7.07851563 13.76414062 -7.98828125 14.76953125 C-8.98408203 15.87361328 -8.98408203 15.87361328 -10 17 C-10.66 16.34 -11.32 15.68 -12 15 C-11.78167414 12.1617638 -11.35334968 10.46577913 -9.625 8.1875 C-8 7 -8 7 -5 7 C-5 6.34 -5 5.68 -5 5 C-4.01 5 -3.02 5 -2 5 C-1.34 3.35 -0.68 1.7 0 0 Z " fill="#FBF6ED" transform="translate(37,27)"/>
<path d="M0 0 C4.27254006 4.27254006 4.13594252 11.77815662 4.25 17.5625 C4.16379959 22.60522381 3.27751761 27.12946411 2 32 C0.9375 30.125 0.9375 30.125 0 28 C0.33 27.34 0.66 26.68 1 26 C1.07116382 23.62597499 1.08409085 21.24999323 1.0625 18.875 C1.05347656 17.59367187 1.04445312 16.31234375 1.03515625 14.9921875 C1.02355469 14.00476563 1.01195312 13.01734375 1 12 C0.34 12 -0.32 12 -1 12 C-0.67 8.04 -0.34 4.08 0 0 Z " fill="#FDF0DC" transform="translate(156,68)"/>
<path d="M0 0 C2.97 0 5.94 0 9 0 C8.34 0.66 7.68 1.32 7 2 C8.5778125 1.9690625 8.5778125 1.9690625 10.1875 1.9375 C13.32704904 1.98896802 15.96883396 2.26517187 19 3 C19 3.33 19 3.66 19 4 C18.154375 4.12117187 17.30875 4.24234375 16.4375 4.3671875 C10.18510375 5.29083695 4.09579623 6.32664417 -2 8 C-2 6.68 -2 5.36 -2 4 C-1.34 3.67 -0.68 3.34 0 3 C0 2.01 0 1.02 0 0 Z " fill="#FCF8F1" transform="translate(82,0)"/>
<path d="M0 0 C1.98 0.99 1.98 0.99 4 2 C4 1.67 4 1.34 4 1 C8.0744433 1 10.11745033 3.09169249 13.1875 5.5 C13.74630859 5.92925781 14.30511719 6.35851562 14.88085938 6.80078125 C16.25885847 7.86078055 17.63009407 8.92956188 19 10 C18.01 10.33 17.02 10.66 16 11 C15.34 10.67 14.68 10.34 14 10 C15.32 11.32 16.64 12.64 18 14 C14.80868712 13.40610488 12.98858762 12.4328248 10.546875 10.3125 C9.928125 9.77882812 9.309375 9.24515625 8.671875 8.6953125 C8.03765625 8.13585937 7.4034375 7.57640625 6.75 7 C6.1003125 6.44054687 5.450625 5.88109375 4.78125 5.3046875 C3.1631299 3.89733095 1.57838683 2.45177826 0 1 C0 0.67 0 0.34 0 0 Z " fill="#FAE9C3" transform="translate(137,147)"/>
<path d="M0 0 C2.34680297 0.61757973 4.68152126 1.2833793 7 2 C7.66 1.67 8.32 1.34 9 1 C9.66 1.33 10.32 1.66 11 2 C11 2.66 11 3.32 11 4 C11.66 4 12.32 4 13 4 C13.33 5.65 13.66 7.3 14 9 C9.40191871 8.46105575 6.13215631 7.23428472 2.125 4.9375 C1.15820312 4.38964844 0.19140625 3.84179688 -0.8046875 3.27734375 C-1.52914062 2.85582031 -2.25359375 2.43429688 -3 2 C-2.01 1.34 -1.02 0.68 0 0 Z " fill="#F8D98E" transform="translate(145,122)"/>
<path d="M0 0 C3.65316671 1.24976756 4.78065836 1.67098753 7 5 C6.67 5.33 6.34 5.66 6 6 C6.495 6.433125 6.99 6.86625 7.5 7.3125 C9 9 9 9 9 12 C8.38125 11.814375 7.7625 11.62875 7.125 11.4375 C4.95839822 10.76313824 4.95839822 10.76313824 3 12 C0.375 10.5625 0.375 10.5625 -2 9 C-1.01 8.67 -0.02 8.34 1 8 C0.01 7.01 -0.98 6.02 -2 5 C-1.01 5 -0.02 5 1 5 C0.67 3.35 0.34 1.7 0 0 Z " fill="#FBE9C5" transform="translate(77,82)"/>
<path d="M0 0 C2.97 0 5.94 0 9 0 C9.33 0.99 9.66 1.98 10 3 C10.66 3 11.32 3 12 3 C12.12375 3.78375 12.2475 4.5675 12.375 5.375 C12.79117993 8.14057822 12.79117993 8.14057822 15 10 C13.25 10.75 13.25 10.75 11 11 C8.75 9.1875 8.75 9.1875 7 7 C7 6.34 7 5.68 7 5 C6.21625 4.731875 5.4325 4.46375 4.625 4.1875 C2 3 2 3 0 0 Z " fill="#FAF7EF" transform="translate(179,25)"/>
<path d="M0 0 C1.485 0.99 1.485 0.99 3 2 C3.99 2 4.98 2 6 2 C8.26171875 4.1875 8.26171875 4.1875 10.6875 7 C11.49574219 7.928125 12.30398437 8.85625 13.13671875 9.8125 C13.75160156 10.534375 14.36648437 11.25625 15 12 C14.67 12.66 14.34 13.32 14 14 C13.01 13.34 12.02 12.68 11 12 C11.66 13.32 12.32 14.64 13 16 C7.46614651 12.14307181 2.15675793 6.47027378 0 0 Z " fill="#F9E9C1" transform="translate(115,157)"/>
<path d="M0 0 C4.00517396 1.60373148 6.6771098 4.42113986 9.640625 7.4453125 C10.16767029 7.97518768 10.69471558 8.50506287 11.23773193 9.05099487 C12.91325675 10.73767825 14.58167722 12.43119564 16.25 14.125 C17.38755851 15.27259388 18.52557436 16.41973461 19.6640625 17.56640625 C22.44803465 20.37238137 25.2256576 23.18450464 28 26 C27.67 26.66 27.34 27.32 27 28 C26.43079834 27.42556152 25.86159668 26.85112305 25.27514648 26.25927734 C22.66529778 23.62849048 20.05143749 21.00172405 17.4375 18.375 C16.54224609 17.47136719 15.64699219 16.56773438 14.72460938 15.63671875 C10.87221785 11.7702159 7.05197174 7.96162119 2.84765625 4.4765625 C1.90792969 3.65929688 0.96820313 2.84203125 0 2 C0 1.34 0 0.68 0 0 Z " fill="#FBF1E3" transform="translate(78,53)"/>
<path d="M0 0 C0.66 0 1.32 0 2 0 C1.67 1.32 1.34 2.64 1 4 C3.64 4.33 6.28 4.66 9 5 C9 5.33 9 5.66 9 6 C7.02 6.33 5.04 6.66 3 7 C3.66 9.31 4.32 11.62 5 14 C1.9083091 11.47043472 1.09068668 8.77545388 0 5 C-0.66 5 -1.32 5 -2 5 C-2.33 5.66 -2.66 6.32 -3 7 C-3 6.34 -3 5.68 -3 5 C-3.66 5 -4.32 5 -5 5 C-5.33 5.66 -5.66 6.32 -6 7 C-5.67 7.99 -5.34 8.98 -5 10 C-5.33 10.66 -5.66 11.32 -6 12 C-7.98 8.535 -7.98 8.535 -10 5 C-9.01 4.67 -8.02 4.34 -7 4 C-7 3.34 -7 2.68 -7 2 C-6.34 2 -5.68 2 -5 2 C-5 2.66 -5 3.32 -5 4 C-4.01 3.67 -3.02 3.34 -2 3 C-1.34 3.33 -0.68 3.66 0 4 C0 2.68 0 1.36 0 0 Z " fill="#FABE44" transform="translate(116,33)"/>
<path d="M0 0 C5.98733316 1.81434338 10.48551886 5.75270541 13.9375 10.875 C14.288125 11.57625 14.63875 12.2775 15 13 C8.31636048 11.72015413 4.13175381 8.3520996 -1 4 C-0.01 3.67 0.98 3.34 2 3 C1.34 2.01 0.68 1.02 0 0 Z " fill="#FBDFA8" transform="translate(69,66)"/>
<path d="M0 0 C0.4125 0.639375 0.825 1.27875 1.25 1.9375 C3.17810487 4.20990931 4.11424181 4.60196439 7 5 C7.33 4.01 7.66 3.02 8 2 C8.99 3.485 8.99 3.485 10 5 C10.66 4.34 11.32 3.68 12 3 C12.66 5.31 13.32 7.62 14 10 C13.4225 9.79375 12.845 9.5875 12.25 9.375 C9.48032433 8.91338739 8.35438733 9.57055055 6 11 C5.7525 10.38125 5.505 9.7625 5.25 9.125 C3.79371361 6.64931313 2.62187494 6.04874998 0 5 C0 3.35 0 1.7 0 0 Z " fill="#FBB527" transform="translate(106,181)"/>
<path d="M0 0 C5.41789792 1.79223239 9.50681235 5.14911202 14.00390625 8.54296875 C17.60854338 11.32772142 17.60854338 11.32772142 22 12 C21.67 13.65 21.34 15.3 21 17 C16.68607774 16.5206753 14.83430453 15.2542015 12 12 C12.99 12 13.98 12 15 12 C14.00097656 11.30132812 13.00195312 10.60265625 11.97265625 9.8828125 C10.669112 8.96376691 9.36573523 8.04448374 8.0625 7.125 C7.40314453 6.66480469 6.74378906 6.20460937 6.06445312 5.73046875 C1.11328125 2.2265625 1.11328125 2.2265625 0 0 Z " fill="#F9C860" transform="translate(137,136)"/>
<path d="M0 0 C0.66 0.33 1.32 0.66 2 1 C1.79375 1.9075 1.5875 2.815 1.375 3.75 C0.9872755 7.11027897 1.19588033 8.24075815 3 11 C2.34 11 1.68 11 1 11 C1 11.99 1 12.98 1 14 C0.67 14.66 0.34 15.32 0 16 C-1.94419973 13.79483386 -3.66083881 11.62559949 -5 9 C-4.3860531 5.00934518 -3.12697059 2.55843048 0 0 Z " fill="#FCEAC9" transform="translate(106,146)"/>
<path d="M0 0 C0.556875 0.28875 1.11375 0.5775 1.6875 0.875 C1.6875 1.535 1.6875 2.195 1.6875 2.875 C1.0275 2.875 0.3675 2.875 -0.3125 2.875 C-0.3125 3.535 -0.3125 4.195 -0.3125 4.875 C-2.125 5.5625 -2.125 5.5625 -4.3125 5.875 C-5.8125 4.5625 -5.8125 4.5625 -7.3125 2.875 C-9.41239652 1.69925289 -9.41239652 1.69925289 -11.3125 0.875 C-10.9825 -0.115 -10.6525 -1.105 -10.3125 -2.125 C-6.06529253 -3.54073582 -3.8814976 -1.88829613 0 0 Z " fill="#FAE3AD" transform="translate(84.3125,97.125)"/>
<path d="M0 0 C4.12172083 3.76843047 7.63068221 7.88904305 10 13 C9.67 13.66 9.34 14.32 9 15 C8.67 14.67 8.34 14.34 8 14 C7.34 14.66 6.68 15.32 6 16 C4.80286983 14.21475351 3.61752721 12.4215972 2.4375 10.625 C1.44556641 9.12839844 1.44556641 9.12839844 0.43359375 7.6015625 C-0.03949219 6.74304688 -0.51257813 5.88453125 -1 5 C-0.67 4.34 -0.34 3.68 0 3 C0 2.01 0 1.02 0 0 Z " fill="#FBE5B9" transform="translate(110,171)"/>
<path d="M0 0 C0.33 0 0.66 0 1 0 C1.02908633 4.22915217 1.04682792 8.45827852 1.0625 12.6875 C1.07087891 13.88568359 1.07925781 15.08386719 1.08789062 16.31835938 C1.09111328 17.47529297 1.09433594 18.63222656 1.09765625 19.82421875 C1.10289307 20.88729248 1.10812988 21.95036621 1.11352539 23.0456543 C1.00716844 25.8134509 0.62894788 28.30792897 0 31 C-0.33 31 -0.66 31 -1 31 C-2.16025772 25.44932709 -2.1836027 20.01829293 -2.1875 14.375 C-2.19974609 13.43398437 -2.21199219 12.49296875 -2.22460938 11.5234375 C-2.22750977 10.1621875 -2.22750977 10.1621875 -2.23046875 8.7734375 C-2.23457764 7.95278809 -2.23868652 7.13213867 -2.24291992 6.28662109 C-1.97751783 3.78837383 -1.25105793 2.15998855 0 0 Z " fill="#F9B10D" transform="translate(220,100)"/>
<path d="M0 0 C0.99 0 1.98 0 3 0 C5.1875 3 5.1875 3 7 6 C6.01 6.99 5.02 7.98 4 9 C4.66 10.32 5.32 11.64 6 13 C5.34 13 4.68 13 4 13 C4 12.34 4 11.68 4 11 C3.401875 11.33 2.80375 11.66 2.1875 12 C0 13 0 13 -3 13 C-1.66511872 9.40608886 -0.03977277 6.24509304 2 3 C1.34 2.67 0.68 2.34 0 2 C0 1.34 0 0.68 0 0 Z " fill="#FBF4E4" transform="translate(72,107)"/>
<path d="M0 0 C4.10899581 1.12795963 8.07561214 2.33510818 12 4 C10.875 5.9375 10.875 5.9375 9 8 C5.8125 8.75 5.8125 8.75 3 9 C2.67 7.35 2.34 5.7 2 4 C1.34 4 0.68 4 0 4 C0 2.68 0 1.36 0 0 Z " fill="#F9E2AB" transform="translate(68,100)"/>
<path d="M0 0 C3.37503669 1.1858237 5.64722731 2.27573689 8 5 C6.375 6.625 6.375 6.625 4 8 C-0.69290488 7.08182296 -4.14646158 4.75252744 -8 2 C-5.29889598 0.64944799 -2.99210994 1 0 1 C0 0.67 0 0.34 0 0 Z " fill="#F9D78F" transform="translate(84,91)"/>
<path d="M0 0 C6.41089109 0 6.41089109 0 9.5625 2.75 C10.16191406 3.26046875 10.76132813 3.7709375 11.37890625 4.296875 C13.08204947 6.08620137 14.01568423 7.74733705 15 10 C14.401875 9.505 13.80375 9.01 13.1875 8.5 C11.02970006 6.71723582 11.02970006 6.71723582 8 7 C7.34 6.34 6.68 5.68 6 5 C5.01 5 4.02 5 3 5 C1.3125 3.625 1.3125 3.625 0 2 C0 1.34 0 0.68 0 0 Z " fill="#FAECCB" transform="translate(108,145)"/>
<path d="M0 0 C1.98 0 3.96 0 6 0 C4.6302836 3.99500618 2.74277578 6.80009492 0 10 C0 9.34 0 8.68 0 8 C-0.66 8 -1.32 8 -2 8 C-2.33 9.32 -2.66 10.64 -3 12 C-3 9.03 -3 6.06 -3 3 C-1.68 2.67 -0.36 2.34 1 2 C0.67 1.34 0.34 0.68 0 0 Z " fill="#F9B529" transform="translate(68,110)"/>
<path d="M0 0 C4.12172083 3.76843047 7.63068221 7.88904305 10 13 C9.67 13.66 9.34 14.32 9 15 C8.34 15 7.68 15 7 15 C6.01 17.475 6.01 17.475 5 20 C4.34 20 3.68 20 3 20 C3 18.02 3 16.04 3 14 C3.66 14 4.32 14 5 14 C5.33 13.34 5.66 12.68 6 12 C4.95948141 9.35140723 3.48055428 7.23610924 1.875 4.875 C0 2 0 2 0 0 Z " fill="#FBBB3E" transform="translate(118,171)"/>
<path d="M0 0 C4.67248931 2.82522609 7.65996398 5.67760044 11 10 C10.67 10.66 10.34 11.32 10 12 C6.52556925 11.43351673 5.01266113 10.35584027 2.75 7.6875 C2.22921875 7.09324219 1.7084375 6.49898437 1.171875 5.88671875 C0 4 0 4 0 0 Z " fill="#FCD588" transform="translate(112,157)"/>
<path d="M0 0 C1.8125 2.125 1.8125 2.125 3 4 C1.68 3.67 0.36 3.34 -1 3 C-1 3.99 -1 4.98 -1 6 C-5.31618166 6 -6.92789659 3.86729652 -10 1 C-10 0.34 -10 -0.32 -10 -1 C-5.96227228 -2.15363649 -3.69751521 -2.04336367 0 0 Z " fill="#FBEBC6" transform="translate(133,136)"/>
<path d="M0 0 C0.99 1.98 1.98 3.96 3 6 C1.9171875 5.7525 1.9171875 5.7525 0.8125 5.5 C-1.86427545 5.02412881 -4.28949487 4.922557 -7 5 C-7.33 5.66 -7.66 6.32 -8 7 C-8.99 6.01 -9.98 5.02 -11 4 C-7.64191281 0.32209498 -4.88401581 -0.13200043 0 0 Z " fill="#F9DEA5" transform="translate(130,130)"/>
<path d="M0 0 C5.26170694 1.41167747 8.72171358 3.74850232 13 7 C12.01 7.33 11.02 7.66 10 8 C10.99 8.99 11.98 9.98 13 11 C7.99821161 9.72047274 5.35601152 7.91534677 2 4 C0.6875 1.6875 0.6875 1.6875 0 0 Z " fill="#FAE4B6" transform="translate(146,135)"/>
<path d="M0 0 C4.72463088 0.46319911 8.17057052 1.09891706 12 4 C12 4.66 12 5.32 12 6 C12.99 6.33 13.98 6.66 15 7 C14.01 7.495 14.01 7.495 13 8 C11.33333333 7.33333333 9.66666667 6.66666667 8 6 C7.01 6.495 7.01 6.495 6 7 C4.62437146 5.71034824 3.29233607 4.37310707 2 3 C2 2.34 2 1.68 2 1 C1.34 0.67 0.68 0.34 0 0 Z " fill="#F9E1A8" transform="translate(145,129)"/>
<path d="M0 0 C0.66 0 1.32 0 2 0 C2.33 0.66 2.66 1.32 3 2 C3.99 2 4.98 2 6 2 C4.25 7.75 4.25 7.75 2 10 C0.35 8.35 -1.3 6.7 -3 5 C-2 3 -2 3 0 0 Z " fill="#FCE0A1" transform="translate(113,73)"/>
<path d="M0 0 C0.33 0.66 0.66 1.32 1 2 C1.99 2 2.98 2 4 2 C4 2.66 4 3.32 4 4 C4.61875 4.268125 5.2375 4.53625 5.875 4.8125 C8 6 8 6 10 9 C9.01 10.485 9.01 10.485 8 12 C7.54625 11.505 7.0925 11.01 6.625 10.5 C5.12364481 8.77390663 5.12364481 8.77390663 3 9 C1.68 6.36 0.36 3.72 -1 1 C-0.67 0.67 -0.34 0.34 0 0 Z " fill="#FAFBF6" transform="translate(26,182)"/>
<path d="M0 0 C3.94525591 3.26503938 5.85708806 7.06518395 7 12 C6.67 12.66 6.34 13.32 6 14 C2.20174132 10.60155802 0.09338177 8.02955615 -1 3 C-0.67 2.01 -0.34 1.02 0 0 Z " fill="#FAD383" transform="translate(107,173)"/>
<path d="M0 0 C2.96404505 2.80804268 5.44499019 5.18315774 7 9 C5.35 9.33 3.7 9.66 2 10 C0.35 7.03 -1.3 4.06 -3 1 C-2.01 0.67 -1.02 0.34 0 0 Z " fill="#FAE2B0" transform="translate(119,175)"/>
<path d="M0 0 C2.59320566 2.3153622 4.35052396 4.50514207 5.9375 7.5625 C7.71390075 10.86051893 9.55994859 12.37553128 13 14 C12.67 14.99 12.34 15.98 12 17 C12.38932856 19.14255793 12.38932856 19.14255793 13 21 C9.19229346 17.59402396 6.81132582 13.73008819 4.25 9.375 C3.83878906 8.694375 3.42757812 8.01375 3.00390625 7.3125 C0 2.26274398 0 2.26274398 0 0 Z " fill="#FBEDCE" transform="translate(108,38)"/>
<path d="M0 0 C4.93582902 1.99946777 7.98329948 5.9822557 11.5625 9.78515625 C13.94905845 11.95371177 14.95375041 12.4473618 18 13 C19.25 15.0625 19.25 15.0625 20 17 C17.70703125 17.21875 17.70703125 17.21875 15 17 C13.26171875 15.53125 13.26171875 15.53125 11.6875 13.5 C8.51710816 9.58240127 5.12026392 6.07296938 1.50390625 2.56640625 C0 1 0 1 0 0 Z " fill="#F9BF3E" transform="translate(132,155)"/>
<path d="M0 0 C3.82524236 1.450954 5.19090966 3.38181932 7 7 C7 7.66 7 8.32 7 9 C5.35 9.33 3.7 9.66 2 10 C1.01 8.35 0.02 6.7 -1 5 C-0.34 4.01 0.32 3.02 1 2 C0.67 1.34 0.34 0.68 0 0 Z " fill="#FAE8C2" transform="translate(96,84)"/>
<path d="M0 0 C2.48092261 2.91238742 3.70390197 5.15072555 4 9 C3.01 10.485 3.01 10.485 2 12 C1.67 12.66 1.34 13.32 1 14 C0.01 14 -0.98 14 -2 14 C-2.625 12.1875 -2.625 12.1875 -3 10 C-1 7 -1 7 1 5 C0.67958603 2.39719432 0.67958603 2.39719432 0 0 Z " fill="#FAEBD2" transform="translate(127,40)"/>
<path d="M0 0 C5.94 0.99 5.94 0.99 12 2 C12 2.99 12 3.98 12 5 C3.42857143 5.28571429 3.42857143 5.28571429 0 3 C0 2.01 0 1.02 0 0 Z " fill="#F9F7ED" transform="translate(84,218)"/>
<path d="M0 0 C4.66666667 4.66666667 9.33333333 9.33333333 14 14 C13.67 14.66 13.34 15.32 13 16 C11.296875 15.90234375 11.296875 15.90234375 9 15 C7.25517076 12.87673925 5.74911145 10.84534887 4.25 8.5625 C3.83878906 7.96373047 3.42757812 7.36496094 3.00390625 6.74804688 C0 2.29208627 0 2.29208627 0 0 Z " fill="#FACF6B" transform="translate(103,43)"/>
<path d="M0 0 C1.65 0 3.3 0 5 0 C5.33 1.32 5.66 2.64 6 4 C6.66 4 7.32 4 8 4 C8.33 5.32 8.66 6.64 9 8 C8.01 8.33 7.02 8.66 6 9 C5 8 4 7 3 6 C2.443125 5.505 1.88625 5.01 1.3125 4.5 C0 3 0 3 0 0 Z " fill="#FBD790" transform="translate(120,39)"/>
<path d="M0 0 C2.1875 -0.3125 2.1875 -0.3125 5 0 C7.875 2.25 7.875 2.25 10 5 C9.6328125 7.171875 9.6328125 7.171875 9 9 C7.49428343 7.88266271 5.99555708 6.75589965 4.5 5.625 C3.6646875 4.99851563 2.829375 4.37203125 1.96875 3.7265625 C1.3190625 3.15679687 0.669375 2.58703125 0 2 C0 1.34 0 0.68 0 0 Z " fill="#FBE1A7" transform="translate(109,151)"/>
<path d="M0 0 C0 0.99 0 1.98 0 3 C-0.66 3 -1.32 3 -2 3 C0.64 6.3 3.28 9.6 6 13 C5.67 13.66 5.34 14.32 5 15 C3.66072279 13.54712339 2.32873153 12.08752741 1 10.625 C0.2575 9.81289063 -0.485 9.00078125 -1.25 8.1640625 C-3 6 -3 6 -3 4 C-3.66 4 -4.32 4 -5 4 C-5 4.66 -5 5.32 -5 6 C-5.66 6 -6.32 6 -7 6 C-7 5.01 -7 4.02 -7 3 C-2.77777778 0 -2.77777778 0 0 0 Z " fill="#FBB931" transform="translate(92,40)"/>
<path d="M0 0 C3.26008643 3.16952847 6.22237877 6.39937989 9 10 C8.67 10.66 8.34 11.32 8 12 C6.25 11.9375 6.25 11.9375 4 11 C1.13940656 7.32761653 0 4.70446134 0 0 Z " fill="#F9D686" transform="translate(106,155)"/>
<path d="M0 0 C0.78375 0.185625 1.5675 0.37125 2.375 0.5625 C4.97089775 1.25962266 4.97089775 1.25962266 7 0 C9.03144641 0.93446535 11.03533587 1.93224776 13 3 C13 3.99 13 4.98 13 6 C7.57689095 5.56615128 4.29855944 4.35497322 0 1 C0 0.67 0 0.34 0 0 Z " fill="#F9CF74" transform="translate(147,134)"/>
<path d="M0 0 C7.15672794 4.86001295 13.01215417 10.81402692 19 17 C16 17 16 17 14.23828125 15.49609375 C13.60277344 14.81675781 12.96726562 14.13742188 12.3125 13.4375 C8.87785373 9.84991957 5.29460571 6.60900088 1.46875 3.4453125 C0.9840625 2.96835937 0.499375 2.49140625 0 2 C0 1.34 0 0.68 0 0 Z " fill="#FCEDDA" transform="translate(76,55)"/>
<path d="M0 0 C4.19043171 1.9340454 5.78502453 4.05156546 8 8 C9.29579647 9.36984198 10.61992749 10.7151049 12 12 C7.52929078 10.59491996 5.16321468 8.40653888 2 5 C1.236875 4.236875 0.47375 3.47375 -0.3125 2.6875 C-0.869375 2.130625 -1.42625 1.57375 -2 1 C-1.34 0.67 -0.68 0.34 0 0 Z " fill="#F9DEA5" transform="translate(146,137)"/>
<path d="M0 0 C2.64 0 5.28 0 8 0 C8 0.66 8 1.32 8 2 C14.93 2 21.86 2 29 2 C29 2.33 29 2.66 29 3 C20.75 3 12.5 3 4 3 C4 2.34 4 1.68 4 1 C2.68 0.67 1.36 0.34 0 0 Z " fill="#F9B515" transform="translate(96,4)"/>
<path d="M0 0 C1.2989839 0.90626784 2.58893167 1.82549537 3.875 2.75 C4.59429687 3.26046875 5.31359375 3.7709375 6.0546875 4.296875 C8.08570565 6.07503547 8.97855012 7.52701607 10 10 C10.66 10 11.32 10 12 10 C12 10.66 12 11.32 12 12 C8.77347475 11.6823628 7.32169408 11.31796069 4.98046875 9.00390625 C4.38878906 8.19824219 3.79710938 7.39257812 3.1875 6.5625 C2.58292969 5.75941406 1.97835937 4.95632812 1.35546875 4.12890625 C0 2 0 2 0 0 Z " fill="#FAD380" transform="translate(123,169)"/>
<path d="M0 0 C2.34211663 2.89399469 3.86862171 5.67155428 5.25 9.125 C5.60578125 9.99382812 5.9615625 10.86265625 6.328125 11.7578125 C7 14 7 14 6 16 C3.9375 14.3125 3.9375 14.3125 2 12 C2.25 9.25 2.25 9.25 3 7 C1.68 7 0.36 7 -1 7 C-0.67 4.69 -0.34 2.38 0 0 Z " fill="#FAB933" transform="translate(66,152)"/>
<path d="M0 0 C13.41504595 11.22483437 13.41504595 11.22483437 16 17 C11.81990637 15.40143688 9.22963876 12.31192211 6.3125 9.0625 C5.81427734 8.52431641 5.31605469 7.98613281 4.80273438 7.43164062 C2.5685836 4.97316535 1.06192661 3.18577982 0 0 Z " fill="#F9F0CE" transform="translate(127,159)"/>
<path d="M0 0 C0.66 0.33 1.32 0.66 2 1 C2 1.66 2 2.32 2 3 C2.66 3 3.32 3 4 3 C4.33 3.99 4.66 4.98 5 6 C4.34 6.66 3.68 7.32 3 8 C2.34 8 1.68 8 1 8 C0.01 8.33 -0.98 8.66 -2 9 C-2.33 7.02 -2.66 5.04 -3 3 C-2.01 3 -1.02 3 0 3 C0 2.01 0 1.02 0 0 Z " fill="#FAE2AF" transform="translate(121,76)"/>
<path d="M0 0 C-0.639375 0.28875 -1.27875 0.5775 -1.9375 0.875 C-4.15206079 1.82823451 -4.15206079 1.82823451 -5 4 C-9.465589 5.48852967 -13.44878513 4.69425312 -18 4 C-14.72779658 2.19001308 -11.49502953 1.2241782 -7.875 0.3125 C-6.82054687 0.04050781 -5.76609375 -0.23148438 -4.6796875 -0.51171875 C-2 -1 -2 -1 0 0 Z " fill="#FBEFD7" transform="translate(146,217)"/>
<path d="M0 0 C0.598125 0.165 1.19625 0.33 1.8125 0.5 C4.11344336 1.1114124 4.11344336 1.1114124 7 1 C11 5.22857143 11 5.22857143 11 9 C8.03469503 7.64199529 5.70868729 6.07571737 3.25 3.9375 C2.63640625 3.41027344 2.0228125 2.88304688 1.390625 2.33984375 C0.93171875 1.89769531 0.4728125 1.45554687 0 1 C0 0.67 0 0.34 0 0 Z " fill="#FAEECD" transform="translate(89,75)"/>
<path d="M0 0 C3.90791244 1.65334757 6.78998799 4.26807489 10 7 C10.99 7.66 11.98 8.32 13 9 C12.34 9 11.68 9 11 9 C11 9.66 11 10.32 11 11 C7.584241 9.55661511 5.63973737 7.75105832 3.25 4.9375 C2.63640625 4.22464844 2.0228125 3.51179687 1.390625 2.77734375 C0 1 0 1 0 0 Z " fill="#FACE72" transform="translate(142,153)"/>
<path d="M0 0 C3.57575896 0 5.05295935 1.08840607 8 3 C7.01 3.495 7.01 3.495 6 4 C6.33 5.32 6.66 6.64 7 8 C6.34 8 5.68 8 5 8 C4.67 8.66 4.34 9.32 4 10 C4 9.34 4 8.68 4 8 C3.34 8 2.68 8 2 8 C2.33 7.01 2.66 6.02 3 5 C2.2575 4.319375 2.2575 4.319375 1.5 3.625 C0 2 0 2 0 0 Z " fill="#FAE8C1" transform="translate(108,65)"/>
<path d="M0 0 C-0.66 1.98 -1.32 3.96 -2 6 C-2.66 5.34 -3.32 4.68 -4 4 C-4.99 5.32 -5.98 6.64 -7 8 C-7.625 5.6875 -7.625 5.6875 -8 3 C-5.45189726 -0.82215411 -4.39145359 -1.46381786 0 0 Z " fill="#FADFA4" transform="translate(141,47)"/>
<path d="M0 0 C1.9375 0.6875 1.9375 0.6875 4 2 C4.75 4.625 4.75 4.625 5 7 C2.66666667 7 0.33333333 7 -2 7 C-1.34 4.69 -0.68 2.38 0 0 Z " fill="#FCEED1" transform="translate(151,60)"/>
<path d="M0 0 C0.47050781 0.433125 0.94101563 0.86625 1.42578125 1.3125 C2.35970703 2.1478125 2.35970703 2.1478125 3.3125 3 C3.92738281 3.556875 4.54226562 4.11375 5.17578125 4.6875 C7.03131335 6.29201498 7.03131335 6.29201498 10 6 C11.6875 7.5 11.6875 7.5 13 9 C12.67 9.66 12.34 10.32 12 11 C8.17753412 10.44040477 6.41028259 8.78682643 3.75 6.0625 C3.04359375 5.35222656 2.3371875 4.64195313 1.609375 3.91015625 C0 2 0 2 0 0 Z " fill="#F9CC67" transform="translate(95,60)"/>
<path d="M0 0 C3.16115776 1.36983503 3.9927092 1.9890638 6 5 C5.625 7.6875 5.625 7.6875 5 10 C4.34 10 3.68 10 3 10 C3 9.34 3 8.68 3 8 C2.01 7.67 1.02 7.34 0 7 C0 4.66666667 0 2.33333333 0 0 Z " fill="#F8D582" transform="translate(92,79)"/>
<path d="M0 0 C5.23435005 4.27293882 9.67106815 8.81580806 14 14 C11 14 11 14 8.30078125 11.4453125 C7.29618956 10.34624927 6.30039723 9.23909313 5.3125 8.125 C4.80138672 7.56941406 4.29027344 7.01382813 3.76367188 6.44140625 C0 2.27071512 0 2.27071512 0 0 Z " fill="#F9BE48" transform="translate(127,161)"/>
<path d="M0 0 C2.64 0 5.28 0 8 0 C8.33 1.65 8.66 3.3 9 5 C3.48387097 4.38709677 3.48387097 4.38709677 1.125 2.5 C0 1 0 1 0 0 Z " fill="#FADDA2" transform="translate(150,126)"/>
<path d="M0 0 C0.66 0.66 1.32 1.32 2 2 C-2.95912807 7.13623978 -2.95912807 7.13623978 -6 9 C-6.99 8.67 -7.98 8.34 -9 8 C-6.03 5.36 -3.06 2.72 0 0 Z " fill="#F8BD2B" transform="translate(41,29)"/>
<path d="M0 0 C0 0.66 0 1.32 0 2 C-1.98 2.66 -3.96 3.32 -6 4 C-6 4.66 -6 5.32 -6 6 C-8.64 6.66 -11.28 7.32 -14 8 C-14 7.34 -14 6.68 -14 6 C-12.04414675 4.99515796 -10.08523763 3.99626195 -8.125 3 C-6.48917969 2.1646875 -6.48917969 2.1646875 -4.8203125 1.3125 C-2 0 -2 0 0 0 Z " fill="#FDF2E5" transform="translate(168,207)"/>
<path d="M0 0 C0.99 0.33 1.98 0.66 3 1 C3 1.66 3 2.32 3 3 C3.639375 3.28875 4.27875 3.5775 4.9375 3.875 C7 5 7 5 8 7 C5.525 6.01 5.525 6.01 3 5 C2.34 6.32 1.68 7.64 1 9 C0.08941469 5.92677456 -0.08886184 3.19902639 0 0 Z " fill="#FDE1AB" transform="translate(141,48)"/>
<path d="M0 0 C2.91517292 1.07401108 4.77810176 1.77810176 7 4 C7.66 4.33 8.32 4.66 9 5 C9 7.31 9 9.62 9 12 C6.03134491 9.45543849 4.6380249 6.51005335 3 3 C2.01 3.495 2.01 3.495 1 4 C0.67 2.68 0.34 1.36 0 0 Z " fill="#FBEED2" transform="translate(93,169)"/>
<path d="M0 0 C1.65 0 3.3 0 5 0 C5.93065133 2.60582371 6.14917407 3.64198224 5.0625 6.25 C4.5365625 7.11625 4.5365625 7.11625 4 8 C4 6.02 4 4.04 4 2 C3.01 2 2.02 2 1 2 C0.34 3.98 -0.32 5.96 -1 8 C-1.93065133 5.39417629 -2.14917407 4.35801776 -1.0625 1.75 C-0.711875 1.1725 -0.36125 0.595 0 0 Z " fill="#FCB52C" transform="translate(210,144)"/>
<path d="M0 0 C0.99 0 1.98 0 3 0 C2.34 4.95 1.68 9.9 1 15 C0.67 15 0.34 15 0 15 C-1.33257403 4.44191344 -1.33257403 4.44191344 0 0 Z " fill="#FDF3E3" transform="translate(3,86)"/>
<path d="M0 0 C3.42738823 1.14246274 4.47400284 2.47400284 7 5 C8.97630407 6.36821051 10.97209016 7.70951192 13 9 C12.01 9.495 12.01 9.495 11 10 C8.1796875 8.56640625 8.1796875 8.56640625 4.875 6.5625 C3.77929688 5.90378906 2.68359375 5.24507813 1.5546875 4.56640625 C0.71164063 4.04949219 -0.13140625 3.53257813 -1 3 C-0.67 2.01 -0.34 1.02 0 0 Z " fill="#F7CE6E" transform="translate(66,78)"/>
<path d="M0 0 C2.72426311 2.35277269 3.8141763 4.62496331 5 8 C4.01 8.33 3.02 8.66 2 9 C0.68 7.02 -0.64 5.04 -2 3 C-1 1 -1 1 0 0 Z " fill="#FBECC9" transform="translate(124,55)"/>
<path d="M0 0 C0 0.99 0 1.98 0 3 C-2.64 3.66 -5.28 4.32 -8 5 C-8 3.68 -8 2.36 -8 1 C-5.29120665 -0.35439668 -2.99066732 -0.06501451 0 0 Z " fill="#FCF3E1" transform="translate(88,3)"/>
<path d="M0 0 C0.53625 0.28875 1.0725 0.5775 1.625 0.875 C4.35280484 2.16711808 7.12612718 3.08558592 10 4 C9.67 5.32 9.34 6.64 9 8 C9.66 8.33 10.32 8.66 11 9 C6.73709821 8.52634425 4.78451042 6.07761678 2 3 C1.34 2.01 0.68 1.02 0 0 Z " fill="#FCB926" transform="translate(149,155)"/>
<path d="M0 0 C2.64 0.99 5.28 1.98 8 3 C7 6 7 6 4.9375 7.1875 C4.298125 7.455625 3.65875 7.72375 3 8 C0 2.25 0 2.25 0 0 Z " fill="#FCEDCF" transform="translate(130,42)"/>
<path d="M0 0 C2.15377564 2.62198774 3.40072174 4.64404172 4 8 C2.35 7.67 0.7 7.34 -1 7 C-1.625 4.625 -1.625 4.625 -2 2 C-1.34 1.34 -0.68 0.68 0 0 Z " fill="#FBF8ED" transform="translate(10,153)"/>
<path d="M0 0 C1.65 1.32 3.3 2.64 5 4 C4 6 4 6 2 7 C1.67 7.66 1.34 8.32 1 9 C-0.625 6.75 -0.625 6.75 -2 4 C-1.1875 1.6875 -1.1875 1.6875 0 0 Z " fill="#F9E2A8" transform="translate(103,141)"/>
<path d="M0 0 C0.66 0.66 1.32 1.32 2 2 C1.67 2.99 1.34 3.98 1 5 C-2.38023517 5 -4.83468937 4.12544378 -8 3 C-5.06872538 1.04581692 -3.44165321 0.35299007 0 0 Z " fill="#F9E9C2" transform="translate(155,120)"/>
<path d="M0 0 C2.6875 0.875 2.6875 0.875 5 2 C4.67 2.99 4.34 3.98 4 5 C1.69 5 -0.62 5 -3 5 C-3 4.01 -3 3.02 -3 2 C-2.01 1.34 -1.02 0.68 0 0 Z " fill="#FBECCA" transform="translate(77,94)"/>
<path d="M0 0 C-0.99 1.485 -0.99 1.485 -2 3 C-2 3.66 -2 4.32 -2 5 C-5.37462715 4.45276317 -7.08235 3.9451 -10 2 C-6.49223216 0.39644899 -3.85645121 -0.22036864 0 0 Z " fill="#F9F7ED" transform="translate(162,8)"/>
<path d="M0 0 C1.5625 1.8125 1.5625 1.8125 3 4 C2.67 4.99 2.34 5.98 2 7 C0.35 6.67 -1.3 6.34 -3 6 C-3.33 4.35 -3.66 2.7 -4 1 C-2.515 1.99 -2.515 1.99 -1 3 C-0.67 2.01 -0.34 1.02 0 0 Z " fill="#FCEDD6" transform="translate(87,171)"/>
<path d="M0 0 C3.94139078 1.66751148 6.7892812 4.22710649 10 7 C9.67 7.66 9.34 8.32 9 9 C7.02 8.34 5.04 7.68 3 7 C3 6.01 3 5.02 3 4 C1.56009377 1.82967524 1.56009377 1.82967524 0 0 Z " fill="#F8CC67" transform="translate(127,147)"/>
<path d="M0 0 C0.33 0 0.66 0 1 0 C1.10251672 5.12583611 1.03590199 9.94997778 0 15 C-2.27477677 11.46145836 -1.99082706 9.29052627 -1.125 5.25 C-0.92132813 4.26515625 -0.71765625 3.2803125 -0.5078125 2.265625 C-0.34023437 1.51796875 -0.17265625 0.7703125 0 0 Z " fill="#F9B730" transform="translate(6,85)"/>
<path d="M0 0 C2.3125 -0.25 2.3125 -0.25 5 0 C6.8125 2 6.8125 2 8 4 C7.67 4.66 7.34 5.32 7 6 C3.63279613 4.60667426 2.0140476 3.0210714 0 0 Z " fill="#FAD686" transform="translate(95,75)"/>
<path d="M0 0 C1.34173403 0.92543709 2.67320159 1.86577405 4 2.8125 C5.11375 3.59560547 5.11375 3.59560547 6.25 4.39453125 C6.8275 4.92433594 7.405 5.45414062 8 6 C8 6.99 8 7.98 8 9 C7.01 9 6.02 9 5 9 C3.01992356 6.14868993 1.54394936 3.1011515 0 0 Z " fill="#F9DFAA" transform="translate(103,63)"/>
<path d="M0 0 C2.12182819 2.58309518 3.68297532 4.61840345 4 8 C3.0625 10.25 3.0625 10.25 2 12 C2 10.68 2 9.36 2 8 C1.01 8 0.02 8 -1 8 C-1 7.34 -1 6.68 -1 6 C-0.34 6 0.32 6 1 6 C0.67 4.02 0.34 2.04 0 0 Z " fill="#FBBA35" transform="translate(206,56)"/>
<path d="M0 0 C1.98 0.99 3.96 1.98 6 3 C5.67 4.32 5.34 5.64 5 7 C3.35 6.67 1.7 6.34 0 6 C0 4.02 0 2.04 0 0 Z " fill="#F9B428" transform="translate(164,16)"/>
<path d="M0 0 C0.66 0 1.32 0 2 0 C2 0.99 2 1.98 2 3 C2.99 3.33 3.98 3.66 5 4 C1.44706507 5.14947895 0.20023331 5.0868937 -3.3125 3.5625 C-4.199375 3.046875 -5.08625 2.53125 -6 2 C-2.25 0.875 -2.25 0.875 0 2 C0 1.34 0 0.68 0 0 Z " fill="#FBBB36" transform="translate(62,205)"/>
<path d="M0 0 C0.625 1.8125 0.625 1.8125 1 4 C-1.21934164 7.32901247 -2.34683329 7.75023244 -6 9 C-4.47291037 5.56404834 -2.40072955 2.88087546 0 0 Z " fill="#FBF0D8" transform="translate(198,179)"/>
<path d="M0 0 C0.33 0 0.66 0 1 0 C1.1875 2.875 1.1875 2.875 1 6 C0.01 6.66 -0.98 7.32 -2 8 C-2.66 7.67 -3.32 7.34 -4 7 C-3.67 8.32 -3.34 9.64 -3 11 C-3.66 11 -4.32 11 -5 11 C-5.33 10.01 -5.66 9.02 -6 8 C-4.6875 5.8125 -4.6875 5.8125 -3 4 C-2.34 4 -1.68 4 -1 4 C-0.67 2.68 -0.34 1.36 0 0 Z " fill="#FCB535" transform="translate(158,102)"/>
<path d="M0 0 C3.65316671 1.24976756 4.78065836 1.67098753 7 5 C6.67 5.66 6.34 6.32 6 7 C3.5625 6.3125 3.5625 6.3125 1 5 C0.1875 2.375 0.1875 2.375 0 0 Z " fill="#F9D07C" transform="translate(82,84)"/>
<path d="M0 0 C0.4125 0.639375 0.825 1.27875 1.25 1.9375 C3.17810487 4.20990931 4.11424181 4.60196439 7 5 C6.67 6.32 6.34 7.64 6 9 C3.53199953 7.84826645 1.95216435 6.95216435 0 5 C-0.125 2.375 -0.125 2.375 0 0 Z " fill="#F7C138" transform="translate(106,181)"/>
<path d="M0 0 C2.50037734 2.17424117 3.43628586 3.73045798 4 7 C3.01 7.33 2.02 7.66 1 8 C-0.5625 5.625 -0.5625 5.625 -2 3 C-1 1 -1 1 0 0 Z " fill="#FAD98D" transform="translate(98,167)"/>
<path d="M0 0 C3.37503669 1.1858237 5.64722731 2.27573689 8 5 C5.6875 5.6875 5.6875 5.6875 3 6 C1.1875 4.75 1.1875 4.75 0 3 C0 2.01 0 1.02 0 0 Z " fill="#F6CE69" transform="translate(71,86)"/>
<path d="M0 0 C1.32 1.32 2.64 2.64 4 4 C3.34 5.98 2.68 7.96 2 10 C1.67 9.34 1.34 8.68 1 8 C0.34 8 -0.32 8 -1 8 C-0.67 7.01 -0.34 6.02 0 5 C0.03874921 3.33378384 0.0450286 1.66605828 0 0 Z " fill="#F6E19F" transform="translate(123,68)"/>
<path d="M0 0 C2.62187494 1.04874998 3.79371361 1.64931313 5.25 4.125 C5.4975 4.74375 5.745 5.3625 6 6 C4.68 6.33 3.36 6.66 2 7 C2 6.01 2 5.02 2 4 C1.01 4 0.02 4 -1 4 C-0.67 2.68 -0.34 1.36 0 0 Z " fill="#FBBA31" transform="translate(190,36)"/>
<path d="M0 0 C-3.34939881 2.02558881 -5.86962551 2.21738987 -9.75 2.125 C-10.73484375 2.10695313 -11.7196875 2.08890625 -12.734375 2.0703125 C-13.85585937 2.03550781 -13.85585937 2.03550781 -15 2 C-9.66618013 -1.55587991 -6.16320363 -0.92448054 0 0 Z " fill="#F9BA33" transform="translate(100,5)"/>
<path d="M0 0 C0.99 0.33 1.98 0.66 3 1 C3.33 3.31 3.66 5.62 4 8 C3.01 8 2.02 8 1 8 C0.67 5.36 0.34 2.72 0 0 Z " fill="#FBAE13" transform="translate(11,149)"/>
<path d="M0 0 C6.75 1.875 6.75 1.875 9 3 C9 3.66 9 4.32 9 5 C4.68607774 4.5206753 2.83430453 3.2542015 0 0 Z " fill="#FAD07A" transform="translate(149,148)"/>
<path d="M0 0 C3.36720387 1.39332574 4.9859524 2.9789286 7 6 C6.67 6.66 6.34 7.32 6 8 C5.01 7.67 4.02 7.34 3 7 C1.3125 3.4375 1.3125 3.4375 0 0 Z " fill="#F7DC94" transform="translate(116,137)"/>
<path d="M0 0 C1.32 0 2.64 0 4 0 C4 2.64 4 5.28 4 8 C3.01 8 2.02 8 1 8 C0.67 5.36 0.34 2.72 0 0 Z " fill="#FBF6EA" transform="translate(219,88)"/>
<path d="M0 0 C0.66 0.99 1.32 1.98 2 3 C2.66 3 3.32 3 4 3 C4 3.66 4 4.32 4 5 C1.5 6.625 1.5 6.625 -1 8 C-2.2077558 4.37673261 -1.54311128 3.35853631 0 0 Z " fill="#F9B82D" transform="translate(10,72)"/>
<path d="M0 0 C-0.99 0.495 -0.99 0.495 -2 1 C-1.34 1.66 -0.68 2.32 0 3 C-3.05263664 3.98120464 -4.94736336 3.98120464 -8 3 C-8 2.34 -8 1.68 -8 1 C-3.375 -1.125 -3.375 -1.125 0 0 Z " fill="#FCB32E" transform="translate(168,204)"/>
<path d="M0 0 C7.57142857 1.85714286 7.57142857 1.85714286 10 5 C6.55881664 5 4.17242648 4.31035007 1 3 C0.67 2.01 0.34 1.02 0 0 Z " fill="#F9F6EE" transform="translate(48,203)"/>
<path d="M0 0 C0.33 0 0.66 0 1 0 C1.26218749 3.14624993 1.24754367 4.61837017 -0.5 7.3125 C-1.2425 8.1478125 -1.2425 8.1478125 -2 9 C-1.34 9.33 -0.68 9.66 0 10 C-1.32 10 -2.64 10 -4 10 C-2.8905928 6.51329166 -1.73662334 3.22515763 0 0 Z " fill="#FDF1E1" transform="translate(211,158)"/>
<path d="M0 0 C0.66 0.33 1.32 0.66 2 1 C1.319375 2.0828125 1.319375 2.0828125 0.625 3.1875 C-0.85494358 5.74894081 -1.97217539 8.23277989 -3 11 C-4.43088528 8.13822943 -3.59991697 6.06624227 -3 3 C-2.34 3 -1.68 3 -1 3 C-0.67 2.01 -0.34 1.02 0 0 Z " fill="#FCECC8" transform="translate(14,61)"/>
<path d="M0 0 C3.7952131 1.49097658 5.61042731 3.75700849 8 7 C4.21388773 6.45912682 2.44599233 4.88277668 0 2 C0 1.34 0 0.68 0 0 Z " fill="#FCE4BB" transform="translate(78,53)"/>
<path d="M0 0 C0.99 0.66 1.98 1.32 3 2 C-0.96 3.98 -0.96 3.98 -5 6 C-4 2 -4 2 -1.9375 0.75 C-1.298125 0.5025 -0.65875 0.255 0 0 Z " fill="#FAF1D5" transform="translate(66,10)"/>
<path d="M0 0 C1.1875 1.625 1.1875 1.625 2 4 C0.625 7.25 0.625 7.25 -1 10 C-1.33 10 -1.66 10 -2 10 C-2.17942163 6.05272412 -2.09350689 3.4019487 0 0 Z " fill="#F5B826" transform="translate(208,158)"/>
<path d="M0 0 C1.33333333 0 2.66666667 0 4 0 C4 1.65 4 3.3 4 5 C3.01 5.33 2.02 5.66 1 6 C-0.0625 4.125 -0.0625 4.125 -1 2 C-0.67 1.34 -0.34 0.68 0 0 Z " fill="#FCF0D5" transform="translate(122,82)"/>
<path d="M0 0 C1.5625 1.1875 1.5625 1.1875 3 3 C2.6875 5.6875 2.6875 5.6875 2 8 C-0.50037734 5.82575883 -1.43628586 4.26954202 -2 1 C-1.34 0.67 -0.68 0.34 0 0 Z " fill="#F8D382" transform="translate(121,52)"/>
<path d="M0 0 C2.64 0.33 5.28 0.66 8 1 C8 1.99 8 2.98 8 4 C6.35 4 4.7 4 3 4 C3 3.34 3 2.68 3 2 C2.01 2 1.02 2 0 2 C0 1.34 0 0.68 0 0 Z " fill="#F9B32D" transform="translate(120,217)"/>
<path d="M0 0 C4.08718695 -0.24042276 7.17679443 0.57741188 11 2 C11 2.33 11 2.66 11 3 C3.57142857 3.14285714 3.57142857 3.14285714 0 2 C0 1.34 0 0.68 0 0 Z " fill="#F8B411" transform="translate(88,217)"/>
<path d="M0 0 C0.99 0 1.98 0 3 0 C3.66 1.32 4.32 2.64 5 4 C2.3333581 5.33332095 0.83319697 4.67102033 -2 4 C-1.34 2.68 -0.68 1.36 0 0 Z " fill="#F7F7E8" transform="translate(104,90)"/>
<path d="M0 0 C3.875 1.75 3.875 1.75 5 4 C4.01 5.485 4.01 5.485 3 7 C0 3.375 0 3.375 0 0 Z " fill="#F6F5EB" transform="translate(31,187)"/>
<path d="M0 0 C0.66 1.32 1.32 2.64 2 4 C1.01 4.99 0.02 5.98 -1 7 C-1.99 6.67 -2.98 6.34 -4 6 C-2.68 4.02 -1.36 2.04 0 0 Z " fill="#FCEFD9" transform="translate(203,172)"/>
<path d="M0 0 C0.99 0.33 1.98 0.66 3 1 C4 4 4 4 3.0625 6.1875 C2.5365625 7.0846875 2.5365625 7.0846875 2 8 C1.34 8 0.68 8 0 8 C-1.09658936 4.71023192 -0.79953138 3.28696233 0 0 Z " fill="#FAF4E4" transform="translate(145,114)"/>
<path d="M0 0 C0.33 1.32 0.66 2.64 1 4 C0.38125 3.814375 -0.2375 3.62875 -0.875 3.4375 C-3.04160178 2.76313824 -3.04160178 2.76313824 -5 4 C-5.33 3.01 -5.66 2.02 -6 1 C-3 0 -3 0 0 0 Z " fill="#FAC04A" transform="translate(137,41)"/>
<path d="M0 0 C2.64 0.33 5.28 0.66 8 1 C4.77208445 3.1519437 3.71599191 3.20086443 0 3 C0 2.01 0 1.02 0 0 Z " fill="#F8B929" transform="translate(128,4)"/>
</svg>
