<?xml version="1.0" standalone="no"?>
<!DOCTYPE svg PUBLIC "-//W3C//DTD SVG 20010904//EN"
 "http://www.w3.org/TR/2001/REC-SVG-20010904/DTD/svg10.dtd">
<svg version="1.0" xmlns="http://www.w3.org/2000/svg"
 width="225.000000pt" height="225.000000pt" viewBox="0 0 225.000000 225.000000"
 preserveAspectRatio="xMidYMid meet">

<g transform="translate(0.000000,225.000000) scale(0.100000,-0.100000)"
fill="#000000" stroke="none">
<path d="M0 1125 l0 -1125 1125 0 1125 0 0 1125 0 1125 -1125 0 -1125 0 0
-1125z m848 687 c9 -10 22 -27 27 -36 9 -16 13 -16 60 5 68 31 201 31 294 1
l64 -21 32 35 c47 49 73 45 99 -16 8 -19 17 -60 21 -90 l7 -56 51 -2 c69 -3
147 -42 180 -90 25 -35 56 -136 46 -147 -3 -2 -32 -7 -65 -10 -108 -11 -103
-7 -92 -67 11 -62 -2 -151 -33 -214 -24 -51 -96 -127 -143 -151 l-31 -16 36
-16 c106 -47 150 -105 130 -172 -12 -41 -67 -95 -106 -105 -20 -5 -25 -12 -25
-40 0 -87 -87 -224 -134 -209 -11 4 -30 6 -41 6 -62 -3 -77 19 -91 127 -5 40
-10 52 -24 52 -14 0 -19 -12 -24 -58 -9 -77 -37 -124 -74 -121 -15 2 -33 0
-40 -5 -27 -16 -58 4 -97 64 -21 33 -41 60 -43 60 -6 0 -62 -45 -87 -70 -12
-11 -29 -20 -40 -20 -10 0 -27 -8 -38 -18 -20 -17 -20 -16 -13 18 9 48 29 65
76 63 37 -2 42 1 65 41 14 23 25 56 25 73 0 25 -6 33 -39 48 -58 26 -82 57
-88 109 -7 59 10 86 86 135 l58 37 -42 17 c-131 54 -211 217 -186 375 l8 52
-46 1 c-25 0 -62 6 -81 12 -31 11 -35 16 -32 42 12 123 92 194 219 195 l62 0
6 48 c12 87 42 152 70 152 8 0 23 -8 33 -18z"/>
</g>
</svg>
