<?xml version="1.0" standalone="no"?>
<!DOCTYPE svg PUBLIC "-//W3C//DTD SVG 20010904//EN"
 "http://www.w3.org/TR/2001/REC-SVG-20010904/DTD/svg10.dtd">
<svg version="1.0" xmlns="http://www.w3.org/2000/svg"
 width="1200.000000pt" height="1200.000000pt" viewBox="0 0 1200.000000 1200.000000"
 preserveAspectRatio="xMidYMid meet">

<g transform="translate(0.000000,1200.000000) scale(0.100000,-0.100000)"
fill="#000000" stroke="none">
<path d="M0 6000 l0 -6000 6000 0 6000 0 0 6000 0 6000 -6000 0 -6000 0 0
-6000z m5472 1713 c17 -15 18 -70 18 -1341 0 -1219 -1 -1327 -17 -1344 -15
-17 -45 -18 -520 -18 -490 0 -504 1 -523 20 -20 20 -20 33 -20 820 l0 800
-521 0 c-339 0 -527 4 -540 10 -18 10 -19 27 -19 530 0 484 1 520 18 529 11 7
371 10 1061 11 958 0 1046 -1 1063 -17z m898 3 c177 -29 319 -128 396 -278 47
-93 58 -138 58 -248 0 -117 -12 -164 -69 -265 -40 -72 -81 -117 -155 -171 -70
-50 -115 -69 -218 -90 -79 -17 -87 -17 -180 0 -181 34 -306 128 -389 294 l-48
97 0 135 0 135 44 90 c81 165 219 271 389 300 43 7 79 13 82 14 3 0 43 -5 90
-13z m2264 8 c24 -9 20 -28 -30 -149 -54 -130 -56 -135 -84 -200 -33 -76 -37
-86 -61 -145 -12 -30 -32 -77 -44 -105 -13 -27 -40 -90 -60 -140 -20 -49 -40
-99 -45 -110 -8 -17 -22 -50 -60 -140 -4 -11 -36 -87 -70 -170 -34 -82 -82
-197 -107 -255 -25 -58 -53 -125 -63 -150 -9 -25 -27 -67 -39 -95 -13 -27 -45
-104 -72 -170 -28 -66 -54 -129 -59 -140 -5 -11 -15 -36 -24 -55 -8 -19 -24
-56 -35 -82 -12 -26 -21 -51 -21 -56 0 -4 -9 -28 -21 -51 -11 -24 -45 -102
-74 -175 -64 -156 -115 -274 -132 -301 -11 -19 -27 -20 -605 -23 -326 -1 -603
0 -615 3 -32 8 -30 50 6 127 15 35 43 99 61 143 18 44 46 108 61 143 16 34 29
68 29 75 0 6 7 21 15 31 8 11 15 25 15 32 0 7 14 43 31 81 53 120 78 178 99
233 7 19 24 60 38 90 13 30 38 89 54 130 17 41 71 170 120 285 49 116 100 237
113 270 12 33 35 87 49 120 46 101 44 97 140 327 36 87 66 160 66 162 0 3 14
35 31 73 43 96 42 95 99 233 29 69 59 133 67 143 15 16 57 17 614 17 328 0
604 -3 613 -6z"/>
</g>
</svg>
